<?xml version="1.0" encoding="UTF-8" standalone="no"?>
<!DOCTYPE svg PUBLIC "-//W3C//DTD SVG 1.1//EN" "http://www.w3.org/Graphics/SVG/1.1/DTD/svg11.dtd">
<svg width="100%" height="100%" viewBox="0 0 577 276" version="1.1" xmlns="http://www.w3.org/2000/svg" xmlns:xlink="http://www.w3.org/1999/xlink" xml:space="preserve" xmlns:serif="http://www.serif.com/" style="fill-rule:evenodd;clip-rule:evenodd;stroke-linejoin:round;stroke-miterlimit:2;">
    <g id="Container">
        <g id="g4493">
            <path id="polyline4491" d="M23.638,201.434l-0,5.7l10.285,5.739l3.3,-1.9l0.8,0.5l4.4,2.5l8.6,5l0.3,0.7l2.1,4.5l4.8,2.8l4.3,2.5l4.4,2.5l8.6,5l4.4,2.5l12.9,7.5l4.4,2.5l1,0.6l4.3,2.5l4.4,2.5l12.9,7.5l4.4,2.5l8.6,5l3.9,-2.3l4.3,-2.5l4.4,-2.5l12.9,-7.5l4.4,-2.5l8.6,-5l4.4,-2.5l8.6,-5l4.4,-2.5l12.9,-7.5l4.4,-2.5l-0,-104l-1,-0.6l-4.4,-2.5l-8.6,-5l-4.4,-2.5l-8.6,-5l-4.4,-2.5l-4.3,-2.5l-1,-0.6l-4.3,-2.5l-4.4,-2.5l-8.6,-5l-4.4,-2.5l-12.9,-7.5l-1.1,-0.6l-12.9,-7.5l-4.4,-2.5l-8.6,-5l-4.4,-2.5l-4.3,-2.5l-2.285,-1.139l-3.8,2.2l-4.3,2.5l-4.4,2.5l-8.6,5l-4.4,2.5l-8.6,5l-4.4,2.5l-12.9,7.5l-4.4,2.5l-8.6,5l-4.4,2.5l-4.3,2.5l-0,98.4" style="fill:rgb(247,58,99);fill-rule:nonzero;"/>
        </g>
        <g id="g4506" opacity="0.3">
            <path id="path6" d="M99.023,148.873l1.8,1.1l0.3,0.2l-0,89.3l-2.2,2.7l-0,-88.3l0.1,-5" style="fill-rule:nonzero;"/>
            <path id="path12_5_" d="M29.823,198.473l-2.2,2.7l-0,-93.4l1.8,1.1l0.3,0.2" style="fill-rule:nonzero;"/>
            <path id="path16_4_" d="M65.523,129.573l-0,89.4l-2.2,2.7l-0,-93.3l1.8,1.1l0.4,0.1" style="fill-rule:nonzero;"/>
            <path id="path40" d="M29.823,108.973l-0,89.4" style="fill-rule:nonzero;"/>
        </g>
        <g id="RenderLayer_LineSet" opacity="0.3">
            <g id="strokes">
                <path id="path54_3_" d="M94.509,68.401l2.65,-3.25l-1.7,1l-30.45,17.5l-2.15,1.25l-1.35,0.8l-30.45,17.5l2.65,0.2" style="fill-rule:nonzero;"/>
                <path id="path112" d="M33.959,103.351l3.05,-1.75l26.1,-15l2.15,-1.25l3.35,-1.95l26.1,-15" style="fill-rule:nonzero;"/>
                <path id="path114" d="M168.459,106.301l-2.65,3.25l-3.35,1.95l-26.1,15l-2.15,1.25l-3.05,1.75l-26.1,15l-2.65,-0.2l1.35,-0.8l30.45,-17.5l2.15,-1.25l1.7,-1l26.1,-15l4.3,-2.45" style="fill-rule:nonzero;"/>
                <path id="path118_2_" d="M130.159,89.001l-3.35,1.95l-26.1,15l-2.15,1.25l-3.05,1.75l-26.1,15l-2.65,-0.2l1.35,-0.8l30.45,-17.5l2.15,-1.25l1.7,-1l30.45,-17.5l-2.7,3.3" style="fill-rule:nonzero;"/>
            </g>
        </g>
        <g id="RenderLayer_LineSet_1_" opacity="0.2">
            <g>
                <path d="M28,200.803l3.8,2.2l8.7,5l0.9,0.5l1.45,0.85l17.4,10l0,-4l-2.35,-1.35l-13.05,-7.5l-0.9,-0.5l-0.75,-0.4l-13.05,-7.5l-2.15,2.7" style="fill:white;"/>
                <path d="M65.8,218.653l3.95,2.3l26.1,15l0,4l-1.8,-1.05l-30.45,-17.5" style="fill:white;"/>
                <path d="M127.45,254.253l-26.1,-15l-2.15,2.75l30.45,17.5l1.8,1.05l0,-4" style="fill:white;"/>
            </g>
        </g>
        <path id="polygon4541" d="M36.323,210.473l-2.4,2.4l3.3,-1.9l-0.9,-0.5Z" style="fill-rule:nonzero;"/>
        <path id="path4544" d="M206.023,123.773l-73.1,42.2l-109.285,-62.939l73.1,-42.2l109.285,62.939Zm-5.5,1.1l-105.685,-60.939l-65.8,38l105.685,60.839l65.8,-37.9Z" style="fill:white;fill-opacity:0.3;fill-rule:nonzero;"/>
        <g id="RenderLayer_LineSet_3_" opacity="0.3">
            <g>
                <path d="M100.06,141.636l-1.55,-0.9l-3.05,-1.75l-26.1,-15l26.1,-15l3.05,-1.75l2.15,-1.25l26.1,-15l3.35,-1.95l4.15,2.4l2.15,1.25l21.75,12.5l2.65,1.5l-60.75,34.95Z" style="fill:white;"/>
                <path d="M196.26,127.236l-0.05,-0.05l-2.55,-1.5l-21.75,-12.5l-2.15,-1.25l-4.15,-2.4l-60.55,34.95l26.1,15l3.05,1.75l1.5,0.85l0.05,0.05l60.5,-34.9Z" style="fill:white;"/>
                <path d="M124.96,86.086l-2.65,1.5l-21.75,12.5l-2.15,1.25l-1.4,0.8l-2.15,1.25l-3.95,2.3l-26.1,15l-0.6,0.35l-30.4,-17.65l3.05,-1.75l26.1,-15l2.15,-1.25l3.35,-1.95l26.1,-15l30.4,17.65Z" style="fill:white;"/>
            </g>
        </g>
        <path id="polygon4565" d="M27.663,101.115l65.96,-38.042l3.5,2.1l-65.86,38.042l-3.6,-2.1Z" style="fill:white;fill-opacity:0.3;fill-rule:nonzero;"/>
        <path id="polygon4567" d="M63.423,121.673l65.8,-38l3.6,2l-65.8,38l-3.6,-2Z" style="fill:white;fill-opacity:0.3;fill-rule:nonzero;"/>
        <path id="polygon4569" d="M99.023,142.273l65.9,-38l3.5,2l-65.8,38l-3.6,-2Z" style="fill:white;fill-opacity:0.3;fill-rule:nonzero;"/>
        <path id="polygon4571" d="M135.923,167.973l66.4,-38.3l0.6,0.4l-66.3,38.3l-0.7,-0.4Z" style="fill:white;fill-opacity:0.3;fill-rule:nonzero;"/>
        <path id="path4573" d="M206.023,222.073l-0,5.7l-68.8,40l-3.9,2.2l-0,-5.7m72.7,-42.2l-0,-98.4l-2,1.2l-4.3,2.5l-1.8,1.1l-4,2.3l-21.5,12.5l-2.2,1.2l-3.2,1.8l-30.1,17.5l-2.2,1.2l-1.5,0.8l-0,98.3m34.9,-88.2l-3,-1.2l-0,-21.4l3,-1.7l-0,24.3Zm-0,36.2l-3,-1.6l-0,-29.7l3,-1.7l-0,33Zm-0,27.5l-3,-1.2l-0,-21.3l3,-1.7l-0,24.2Zm33.2,-19.2l-3,-1.2l-0,-21.3l3,-1.7l-0,24.2Zm-0,-27.4l-3,-1.6l-0,-29.7l3,-1.7l-0,33Zm-0,-36.3l-3,-1.2l-0,-21.4l3,-1.7l-0,24.3Zm-65.4,11.3l0.6,0.2l0.2,0.1l-0,90.7l-0.7,-0.4l-0,-90.6m66.9,-37.9l-66.3,38.3l-0.6,-0.4l66.3,-38.3l0.6,0.4Zm-34.8,45.8l-29.8,17.2l-0,-2.9l26.9,-15.5l2.9,1.2Zm-0,36.2l-29.8,17.3l-0,-3.4l26.9,-15.5l2.9,1.6Zm-0,27.5l-29.8,17.2l-0,-2.9l26.9,-15.5l2.9,1.2Zm33.2,-82.9l-29.8,17.2l-0,-2.9l26.8,-15.5l3,1.2Zm-0,36.3l-29.8,17.2l-0,-3.4l26.9,-15.5l2.9,1.7Zm-0,27.4l-29.8,17.2l-0,-2.9l26.9,-15.5l2.9,1.2Z" style="fill-opacity:0.3;fill-rule:nonzero;"/>
        <path id="polygon4575" d="M138.323,190.173l26.8,-15.5l3,1.2l-29.8,17.2l-0,-2.9Z" style="fill:white;fill-opacity:0.3;fill-rule:nonzero;"/>
        <path id="polygon4577" d="M138.323,225.973l26.8,-15.5l3,1.6l-29.8,17.3l-0,-3.4Z" style="fill:white;fill-opacity:0.3;fill-rule:nonzero;"/>
        <path id="polygon4579" d="M138.323,253.873l26.8,-15.5l3,1.2l-29.8,17.2l-0,-2.9Z" style="fill:white;fill-opacity:0.3;fill-rule:nonzero;"/>
        <path id="polygon4581" d="M171.423,170.973l26.9,-15.5l3,1.2l-29.9,17.3l-0,-3Z" style="fill:white;fill-opacity:0.3;fill-rule:nonzero;"/>
        <path id="polygon4583" d="M171.423,206.873l26.9,-15.6l3,1.7l-29.9,17.2l-0,-3.3Z" style="fill:white;fill-opacity:0.3;fill-rule:nonzero;"/>
        <path id="polygon4585" d="M171.423,234.673l26.9,-15.5l3,1.2l-29.9,17.2l-0,-2.9Z" style="fill:white;fill-opacity:0.3;fill-rule:nonzero;"/>
        <path id="polygon4587" d="M181.723,147.273l-0.5,-0.2l-1.1,0l-0.4,0.2l-0.3,0.3l-0.2,0.3l-0,22l-0.3,-0.2l-0,-0.1l-0.4,0.3l-0.4,0.2l-0,3.2l1.1,0.7l-0,32.1l-0.3,-0.2l-0.8,0.4l-0,3.2l1.1,0.7l-0,23.5l0.2,0.4l0.2,0.1l-0,0.1l0.1,0l0.4,0.2l0.6,0.1l0.5,-0.1l0.5,-0.2l0.3,-0.2l0.1,-0.4l-0,-85.8l-0.1,-0.3l-0.3,-0.3Z" style="fill:rgb(200,200,200);fill-rule:nonzero;"/>
        <path id="polygon4589" d="M164.223,157.373l-0.5,-0.1l-0.6,-0.1l-1,0.2l-0.3,0.3l-0.1,0.3l-0,22l-0.4,-0.2l-0.4,0.2l-0.3,0.3l-0,3.1l1.1,0.7l-0,32.1l-0.3,-0.2l-0.1,0l-0.4,0.2l-0.3,0.2l-0,3.3l1.1,0.7l-0,23.5l0.1,0.3l0.2,0.2l0.1,0l-0,0.1l1,0.2l0.6,-0.1l0.5,-0.1l0.3,-0.3l0.1,-0.3l-0,-85.9l-0.1,-0.3l-0.3,-0.3Z" style="fill:rgb(200,200,200);fill-rule:nonzero;"/>
        <path id="path2_3_" d="M179.223,147.873l0.1,0.3l0.3,0.3l0.5,0.2l0.6,0.1l0.6,-0.1l0.5,-0.2l0.3,-0.3l0.1,-0.3l-0.1,-0.3l-0.3,-0.3l-0.5,-0.2l-0.6,-0.1l-0.6,0.1l-0.5,0.2l-0.3,0.3l-0.1,0.3Z" style="fill:white;fill-opacity:0.3;fill-rule:nonzero;"/>
        <path id="path68_1_" d="M161.723,157.973l0.1,-0.3l0.3,-0.3l0.5,-0.2l0.6,-0.1l0.6,0.1l0.5,0.2l0.3,0.3l0.1,0.3l-0.1,0.3l-0.3,0.3l-0.5,0.2l-0.6,0.1l-0.6,-0.1l-0.5,-0.2l-0.3,-0.3l-0.1,-0.3Z" style="fill:white;fill-opacity:0.3;fill-rule:nonzero;"/>
        <path id="path160" d="M160.623,180.273l0.8,0.5l0.4,0.2l-0,-0.9l-0.4,-0.2l-0.8,0.4" style="fill:white;fill-opacity:0.3;fill-rule:nonzero;"/>
        <path id="path162" d="M178.123,206.273l0.8,-0.4l0.3,0.2l-0,0.9l-0.4,-0.2l-0.7,-0.5" style="fill:white;fill-opacity:0.3;fill-rule:nonzero;"/>
        <path id="path164" d="M178.123,170.073l1.2,0.6l-0,-0.9l-0.4,-0.2l-0.8,0.5Z" style="fill:white;fill-opacity:0.3;fill-rule:nonzero;"/>
        <path id="path182" d="M161.723,217.073l-0,-0.9l-0.3,-0.2l-0.8,0.4" style="fill:white;fill-opacity:0.3;fill-rule:nonzero;"/>
    </g>
    <g style="filter:url(#_Effect1);">
        <path id="Cone-Shadow" serif:id="Cone Shadow" d="M104.379,90.593l31.663,-38.931l21.514,41.089c14.447,14.4 27.258,28.175 22.052,35.056l-3.446,16.313l-18.944,10.942l-27.578,-9.818l-15.915,5.212c-19.116,-11.584 -13.847,-5.573 -15.871,-1.27l-10.014,-22.472l-9.091,-16.95l25.63,-19.171Z" style="fill-opacity:0.62;fill-rule:nonzero;"/>
    </g>
    <g id="Ice">
        <path d="M118.72,10.096c3.344,3.035 2.631,0.914 10.765,10.55c3.416,3.392 7.15,9.02 10.66,15.689c5.664,10.758 10.914,23.981 14.558,33.077l1.757,5.058c2.536,4.285 3.706,11.872 5.507,15.918c14.218,1.446 11.643,15.603 11.757,20.537c-1.294,4.769 -7.743,13.422 -13.307,16.898c5.529,18.944 -11.456,23.61 -23.39,17.726c-8.257,1.617 -20.449,-4.284 -21.144,-5.931c-2.684,2.026 -13.625,7.443 -23.554,0.1l-4.775,-2.382c-10.157,11.386 -17.767,-5.163 -21.3,-12.921c-5.452,-11.972 -6.117,-17.869 1.059,-27.824c1.659,-2.301 9.072,-16.006 11,-18.101c1.161,-1.261 4.233,-4.779 4.962,-6.362c0.208,-0.452 -0.204,-2.07 0.85,-7.072c1.065,-5.055 3.106,-11.536 5.645,-17.576c4.464,-10.619 12.156,-20.147 12.557,-20.364l16.393,-17.02Z" style="fill:white;"/>
        <path d="M135.713,107.911c-10.733,-6.926 -19.479,-16.279 -4.356,-27.994c8.677,-6.722 12.267,-13.12 12.122,-20.108c-0.13,-6.167 0.339,1.225 0.339,1.225c4.23,12.636 -2.998,24.877 -7.895,35.994c-1.383,3.139 -1.568,8.153 -0.312,10.375c-0,-0 7.148,5.056 0.102,0.509l-0,-0.001Z" style="fill:url(#_Linear2);"/>
        <path d="M92.328,139.719c0.309,0.228 0.618,0.444 0.928,0.648c9.673,6.362 20.026,1.215 22.626,-0.748l0.165,-1.554c4.291,0.221 7.906,-5.8 3.676,-8.835c-8.514,-6.11 -16.73,-7.436 -25.619,-13.018c-11.968,-7.517 -11.278,-17.028 -6.36,-26.992c4.017,-9.651 10.648,-11.885 16.669,-15.849c1.656,-3.366 4.344,-5.98 5.968,-9.482c6.263,-13.51 1.713,-28.918 5.928,-42.81c1.74,-3.66 5.089,-7.318 1.611,-10.983c-8.22,9.293 -15.187,16.852 -15.427,33.09c-0.351,23.774 -23.398,25.063 -32.549,49.039c-7.847,20.559 7.913,24.648 26.742,32.795c16.451,7.117 7.822,18.509 -3.144,15.173l-1.214,-0.474Z" style="fill:url(#_Linear3);"/>
        <path d="M137.198,127.452c-0.037,-7.995 -52.448,-22.216 -18.276,-43.365c25.864,-16.006 3.094,-44.647 1.716,-65.968l-1.119,-3.488c-7.063,15.109 6.912,31.825 0.351,46.784c-6.871,15.664 -34.83,12.488 -32.184,33.514c2.21,17.562 25.509,19.829 38.1,24.414c8.217,3.691 11.412,8.11 11.412,8.11l-0,-0.001Z" style="fill:url(#_Linear4);"/>
        <path d="M173.725,110.926l-0.001,0.001c-1.295,4.768 -7.743,13.42 -13.307,16.896c0,0.001 0,0.002 0.001,0.002c0.152,0.524 0.288,1.037 0.407,1.539c-0.176,-0.415 -0.365,-0.859 -0.566,-1.333c-1.323,-3.118 -3.595,-6.381 -7.026,-9.636c-2.555,-2.423 -10.384,-5.899 -17.4,-10.408l-0.221,-0.586c-1.256,-2.221 -1.07,-7.235 0.313,-10.374c4.897,-11.118 12.125,-23.357 7.895,-35.995l-0.362,0.182c0.347,-6.567 -2.759,-13.611 -8.157,-21.913c-3.838,-8.031 -10.846,-13.904 -13.543,-22.576l-2.877,-5.756c11.533,8.992 20.95,22.828 25.203,34.925c2.069,5.883 5.196,11.087 7.847,16.626c1,2.463 1.929,4.788 2.772,6.892l0.818,2.355c1.318,4.745 1.876,10.003 0.981,16.236c-1.776,12.358 14.046,29.561 17.222,22.902c0,0.007 0.001,0.014 0.001,0.021Z" style="fill:url(#_Linear5);"/>
        <path d="M167.223,91.786c2.43,1.183 3.984,2.962 4.971,4.991c0.014,0.029 0.028,0.058 0.042,0.087c2.301,4.83 1.429,11.04 1.487,14.012c-3.485,2.471 -11.337,-3.52 -15.068,-11.608l-0.033,-0.357c0.838,-0.388 2.913,-2.564 4.017,-4.063c1.253,-1.702 2.788,-3.757 4.584,-3.062Z" style="fill:url(#_Linear6);"/>
        <path d="M158.622,98.911c-1.37,-2.643 -2.389,-5.321 -2.25,-8.291c-0.035,-0.89 0,-1.767 0.126,-2.62c0.81,-5.635 0.431,-10.474 -0.623,-14.856l0.582,1.324c2.535,4.286 3.572,11.556 5.373,15.602c0.045,0.108 0.091,0.214 0.137,0.318c2.096,0.213 3.827,0.702 5.256,1.398c-1.739,-0.673 -3.233,1.232 -4.464,2.899c-0.064,0.065 -0.105,0.12 -0.12,0.163c-1.104,1.499 -3.179,3.675 -4.017,4.063Z" style="fill:url(#_Linear7);"/>
        <path d="M115.909,139.355l0.137,-1.29c4.291,0.221 7.906,-5.8 3.675,-8.835c-8.513,-6.11 -16.73,-7.436 -25.618,-13.018c-11.968,-7.517 -11.278,-17.027 -6.361,-26.992c0.018,-0.041 0.035,-0.082 0.052,-0.123c-0.33,1.713 -0.387,3.641 -0.111,5.831c1.29,10.247 9.759,15.287 19.092,18.619c6.662,2.378 13.763,3.885 19.008,5.794l0.003,0.002c8.217,3.691 11.412,8.109 11.412,8.109c-0.001,-0.077 -0.006,-0.155 -0.016,-0.233c0.177,0.244 0.344,0.49 0.503,0.738c7.633,11.936 -3.656,27.265 -21.776,11.398Z" style="fill:url(#_Linear8);"/>
        <path d="M115.909,139.355c-0.22,-0.193 -0.442,-0.391 -0.664,-0.593l0.636,0.857l0.028,-0.264Z" style="fill:url(#_Linear9);"/>
        <path d="M97.692,77.491c2.215,-1.442 4.509,-2.665 6.719,-4.12c1.656,-3.366 4.345,-5.98 5.969,-9.482c6.262,-13.51 1.713,-28.918 5.927,-42.81c1.741,-3.66 2.929,-7.145 2.929,-7.145l0.28,0.696c-7.063,15.108 6.912,31.825 0.351,46.784c-3.827,8.725 -14.196,11.604 -22.175,16.077Z" style="fill:url(#_Linear10);"/>
        <path d="M68.046,104.187c-0.344,-2.338 -0.162,-5.003 0.642,-8.091c0.318,-1.224 -0.81,0.419 -0.81,0.419c-7.176,9.956 -7.077,15.923 -1.625,27.894c3.533,7.759 11.143,24.307 21.3,12.922c-0,-0 2.563,1.793 5.839,3.124c-0.046,-0.029 -0.091,-0.059 -0.136,-0.088c-0.31,-0.204 -0.619,-0.42 -0.928,-0.648l1.214,0.474c10.966,3.336 19.595,-8.056 3.144,-15.173c-14.435,-6.246 -27.067,-10.107 -28.64,-20.833Z" style="fill:url(#_Linear11);"/>
        <path d="M83.663,72.912c9.181,-8.567 18.607,-14.589 18.83,-29.726c0.137,-9.269 7.628,-21.808 11.13,-27.357l-5.642,5.764c-15.944,16.327 -22.795,35.88 -24.706,50.535c-0,0 -4.849,5.671 0.389,0.784l-0.001,-0Z" style="fill:url(#_Linear12);"/>
        <path d="M135.973,144.06c4.566,-3.276 5.549,-10.63 1.181,-16.914l0.039,0.307c-0.037,-7.995 -52.448,-22.216 -18.276,-43.365c25.863,-16.006 3.093,-44.647 1.715,-65.968l1.123,-1.792c2.697,8.672 9.704,14.545 13.542,22.576c10.697,16.451 12.394,27.96 -3.942,40.615c-25.05,19.406 15.391,32.33 21.874,38.478c19.835,18.812 0.942,37.946 -16.212,27.365l-1.044,-1.302Z" style="fill:url(#_Linear13);"/>
        <g>
            <path d="M118.922,9.588c-0.205,0.032 -0.398,0.142 -0.538,0.308c-3.304,3.735 -11.574,12.2 -11.718,12.354c-16.112,16.501 -22.219,35.379 -24.157,50.239c-0.062,0.246 -0.031,0.518 0.084,0.74c-5.086,4.816 -10.681,14.158 -14.659,22.414c-5.684,6.94 -5.794,11.705 -5.887,13.77c0.141,2.023 1.839,2.473 1.812,0.094c0.152,-3.378 0.8,-6.804 4.799,-11.31c-0.714,4.358 -0.618,5.595 -0.267,7.379c0.718,3.656 2.717,6.573 5.484,8.975c5.535,4.803 14.218,7.8 23.601,11.859c5.269,2.28 7.709,4.974 8.373,7.129c0.665,2.154 -0.182,3.98 -2.127,5.299c-3.891,2.636 -12.175,2.355 -18.651,-6.831c-0.289,-0.412 -0.896,-0.5 -1.274,-0.186c-0.378,0.314 -0.46,0.975 -0.171,1.387c6.919,9.815 16.16,10.644 21.057,7.326c2.448,-1.659 3.825,-4.59 2.894,-7.61c-0.931,-3.02 -3.91,-5.935 -9.449,-8.331c-9.447,-4.087 -18.028,-7.194 -23.119,-11.613c-2.545,-2.208 -4.216,-4.686 -4.834,-7.833c-0.618,-3.147 -0.179,-7.028 1.737,-12.049c4.474,-11.722 12.316,-17.913 19.3,-24.236c6.985,-6.323 13.119,-12.934 13.299,-25.167c0.23,-15.587 6.684,-22.81 14.664,-31.823c0.068,0.069 0.089,0.105 0.221,0.206c11.365,8.862 20.798,22.771 24.974,34.648c2.429,6.909 5.212,12.804 8.014,19.211c2.803,6.407 4.658,13.3 3.35,22.41c-0.586,4.08 0.576,8.476 2.509,12.454c1.933,3.978 5.641,7.55 8.324,9.962c1.341,1.207 2.683,2.132 3.961,2.655c0.666,0.273 1.14,0.294 1.484,-0.492c0.315,-0.72 -0.38,-1.161 -0.86,-1.357c-1.003,-0.411 -2.191,-1.238 -3.423,-2.346c-2.465,-2.216 -6.057,-5.613 -7.872,-9.346c-1.814,-3.733 -2.836,-7.764 -2.34,-11.221c1.371,-9.545 -0.602,-16.978 -3.49,-23.581c-2.888,-6.603 -5.661,-12.443 -7.986,-19.057c-4.33,-12.315 -13.804,-26.254 -25.505,-35.377c-0.17,-0.134 -1.138,-1.118 -1.613,-1.05l-0.001,-0.003Zm-11.207,14.244c-4.281,6.176 -4.912,12.774 -5.016,19.827c-0.17,11.54 -5.733,17.429 -12.647,23.688c-1.473,1.334 -4.014,2.718 -5.561,4.125c1.949,-13.215 9.349,-33.756 23.224,-47.64Z" style="fill:url(#_Linear14);"/>
            <path d="M138.255,145.248c1.151,-0.987 2.063,-2.247 2.693,-3.665c3.129,-7.047 -0.677,-17.931 -13.767,-22.698c-6.412,-2.335 -15.32,-4.048 -22.868,-7.328c-3.775,-1.64 -7.192,-3.668 -9.762,-6.297c-2.571,-2.63 -4.337,-5.829 -4.861,-9.991c-0.633,-5.028 0.522,-8.374 2.728,-11.092c2.206,-2.719 5.567,-4.769 9.291,-6.648c7.448,-3.757 16.434,-6.88 20.085,-15.204c3.446,-7.855 1.499,-16.078 -0.29,-24.01c-1.79,-7.932 -4.723,-17.537 -1.363,-24.726c0.323,-0.642 -0.269,-1.562 -0.933,-1.45l-0.002,0.001c-0.291,0.049 -0.554,0.264 -0.68,0.554c-3.702,7.92 -0.572,18.17 1.221,26.113c1.791,7.943 3.549,15.579 0.433,22.685c-3.219,7.339 -11.647,10.423 -19.234,14.25c-3.794,1.914 -7.38,4.021 -9.887,7.11c-2.507,3.089 -3.843,7.21 -3.153,12.694c0.581,4.619 2.584,8.285 5.397,11.163c2.813,2.878 6.427,5.003 10.328,6.698c7.801,3.39 16.803,5.11 22.981,7.359c12.418,4.522 15.281,14.193 12.722,19.954c-1.279,2.88 -3.901,4.881 -7.704,4.954c-3.804,0.074 -8.842,-1.879 -14.687,-7.196c-0.37,-0.331 -0.984,-0.266 -1.288,0.137c-0.304,0.404 -0.244,1.072 0.126,1.403c6.071,5.522 11.511,7.713 15.904,7.629c2.141,-0.041 4.789,-1.259 6.57,-2.399Z" style="fill:url(#_Linear15);"/>
            <path d="M154.952,118.144c-1.854,-1.758 -5.573,-3.646 -9.875,-6.02c-4.302,-2.374 -9.124,-5.164 -12.93,-8.304c-3.807,-3.14 -6.514,-6.591 -6.843,-10.178c-0.328,-3.586 1.582,-7.695 7.711,-12.444c8.286,-6.419 12.177,-12.732 12.474,-19.62c0.296,-6.861 -2.92,-14.008 -8.276,-22.261c-0.019,-0.031 -0.044,-0.059 -0.056,-0.093c-3.971,-8.24 -14.473,-19.037 -17.047,-27.312c-0.128,-0.44 -0.57,-0.744 -0.99,-0.679c-0.518,0.093 -0.879,0.753 -0.709,1.294c2.81,9.035 13.504,19.942 17.216,27.712l0.057,0.124c5.304,8.156 8.258,14.977 7.993,21.12c-0.264,6.143 -3.686,11.874 -11.735,18.11c-6.395,4.955 -8.832,9.744 -8.421,14.231c0.411,4.487 3.537,8.28 7.521,11.566c3.983,3.285 8.892,6.104 13.213,8.489c4.178,2.306 7.868,4.29 9.362,5.609c0.051,0.045 1.212,0.85 1.722,0.167c0.51,-0.683 -0.387,-1.511 -0.387,-1.511Z" style="fill:url(#_Linear16);"/>
        </g>
        <g>
            <path d="M118.922,10.588c-0.205,0.032 -0.398,0.142 -0.538,0.308c-3.304,3.735 -11.574,12.2 -11.718,12.354c-16.112,16.501 -22.219,35.379 -24.157,50.239c-0.062,0.246 -0.031,0.518 0.084,0.74c-5.086,4.816 -10.681,14.158 -14.659,22.414c-5.684,6.94 -5.794,11.705 -5.887,13.77c0.141,2.023 1.839,2.473 1.812,0.094c0.152,-3.378 0.8,-6.804 4.799,-11.31c-0.714,4.358 -0.618,5.595 -0.267,7.379c0.718,3.656 2.717,6.573 5.484,8.975c5.535,4.803 14.218,7.8 23.601,11.859c5.269,2.28 7.709,4.974 8.373,7.129c0.665,2.154 -0.182,3.98 -2.127,5.299c-3.891,2.636 -12.175,2.355 -18.651,-6.831c-0.289,-0.412 -0.896,-0.5 -1.274,-0.186c-0.378,0.314 -0.46,0.975 -0.171,1.387c6.919,9.815 16.16,10.644 21.057,7.326c2.448,-1.659 3.825,-4.59 2.894,-7.61c-0.931,-3.02 -3.91,-5.935 -9.449,-8.331c-9.447,-4.087 -18.028,-7.194 -23.119,-11.613c-2.545,-2.208 -4.216,-4.686 -4.834,-7.833c-0.618,-3.147 -0.179,-7.028 1.737,-12.049c4.474,-11.722 12.316,-17.913 19.3,-24.236c6.985,-6.323 13.119,-12.934 13.299,-25.167c0.23,-15.587 6.684,-22.81 14.664,-31.823c0.068,0.069 0.089,0.105 0.221,0.206c11.365,8.862 20.798,22.771 24.974,34.648c2.429,6.909 5.212,12.804 8.014,19.211c2.803,6.407 4.658,13.3 3.35,22.41c-0.586,4.08 0.576,8.476 2.509,12.454c1.933,3.978 5.641,7.55 8.324,9.962c1.341,1.207 2.683,2.132 3.961,2.655c0.666,0.273 1.14,0.294 1.484,-0.492c0.315,-0.72 -0.38,-1.161 -0.86,-1.357c-1.003,-0.411 -2.191,-1.238 -3.423,-2.346c-2.465,-2.216 -6.057,-5.613 -7.872,-9.346c-1.814,-3.733 -2.836,-7.764 -2.34,-11.221c1.371,-9.545 -0.602,-16.978 -3.49,-23.581c-2.888,-6.603 -5.661,-12.443 -7.986,-19.057c-4.33,-12.315 -13.804,-26.254 -25.505,-35.377c-0.17,-0.134 -1.138,-1.118 -1.613,-1.05l-0.001,-0.003Zm-11.207,14.244c-4.281,6.176 -4.912,12.774 -5.016,19.827c-0.17,11.54 -5.733,17.429 -12.647,23.688c-1.473,1.334 -4.014,2.718 -5.561,4.125c1.949,-13.215 9.349,-33.756 23.224,-47.64Z" style="fill:url(#_Linear17);"/>
            <path d="M138.255,146.248c1.151,-0.987 2.063,-2.247 2.693,-3.665c3.129,-7.047 -0.677,-17.931 -13.767,-22.698c-6.412,-2.335 -15.32,-4.048 -22.868,-7.328c-3.775,-1.64 -7.192,-3.668 -9.762,-6.297c-2.571,-2.63 -4.337,-5.829 -4.861,-9.991c-0.633,-5.028 0.522,-8.374 2.728,-11.092c2.206,-2.719 5.567,-4.769 9.291,-6.648c7.448,-3.757 16.434,-6.88 20.085,-15.204c3.446,-7.855 1.499,-16.078 -0.29,-24.01c-1.79,-7.932 -4.723,-17.537 -1.363,-24.726c0.323,-0.642 -0.269,-1.562 -0.933,-1.45l-0.002,0.001c-0.291,0.049 -0.554,0.264 -0.68,0.554c-3.702,7.92 -0.572,18.17 1.221,26.113c1.791,7.943 3.549,15.579 0.433,22.685c-3.219,7.339 -11.647,10.423 -19.234,14.25c-3.794,1.914 -7.38,4.021 -9.887,7.11c-2.507,3.089 -3.843,7.21 -3.153,12.694c0.581,4.619 2.584,8.285 5.397,11.163c2.813,2.878 6.427,5.003 10.328,6.698c7.801,3.39 16.803,5.11 22.981,7.359c12.418,4.522 15.281,14.193 12.722,19.954c-1.279,2.88 -3.901,4.881 -7.704,4.954c-3.804,0.074 -8.842,-1.879 -14.687,-7.196c-0.37,-0.331 -0.984,-0.266 -1.288,0.137c-0.304,0.404 -0.244,1.072 0.126,1.403c6.071,5.522 11.511,7.713 15.904,7.629c2.141,-0.041 4.789,-1.259 6.57,-2.399Z" style="fill:url(#_Linear18);"/>
            <path d="M154.952,119.144c-1.854,-1.758 -5.573,-3.646 -9.875,-6.02c-4.302,-2.374 -9.124,-5.164 -12.93,-8.304c-3.807,-3.14 -6.514,-6.591 -6.843,-10.178c-0.328,-3.586 1.582,-7.695 7.711,-12.444c8.286,-6.419 12.177,-12.732 12.474,-19.62c0.296,-6.861 -2.92,-14.008 -8.276,-22.261c-0.019,-0.031 -0.044,-0.059 -0.056,-0.093c-3.971,-8.24 -14.473,-19.037 -17.047,-27.312c-0.128,-0.44 -0.57,-0.744 -0.99,-0.679c-0.518,0.093 -0.879,0.753 -0.709,1.294c2.81,9.035 13.504,19.942 17.216,27.712l0.057,0.124c5.304,8.156 8.258,14.977 7.993,21.12c-0.264,6.143 -3.686,11.874 -11.735,18.11c-6.395,4.955 -8.832,9.744 -8.421,14.231c0.411,4.487 3.537,8.28 7.521,11.566c3.983,3.285 8.892,6.104 13.213,8.489c4.178,2.306 7.868,4.29 9.362,5.609c0.051,0.045 1.212,0.85 1.722,0.167c0.51,-0.683 -0.387,-1.511 -0.387,-1.511Z" style="fill:url(#_Linear19);"/>
        </g>
        <g>
            <path d="M119.922,10.588c-0.205,0.032 -0.398,0.142 -0.538,0.308c-3.304,3.735 -11.574,12.2 -11.718,12.354c-16.112,16.501 -22.219,35.379 -24.157,50.239c-0.062,0.246 -0.031,0.518 0.084,0.74c-5.086,4.816 -10.681,14.158 -14.659,22.414c-5.684,6.94 -5.794,11.705 -5.887,13.77c0.141,2.023 1.839,2.473 1.812,0.094c0.152,-3.378 0.8,-6.804 4.799,-11.31c-0.714,4.358 -0.618,5.595 -0.267,7.379c0.718,3.656 2.717,6.573 5.484,8.975c5.535,4.803 14.218,7.8 23.601,11.859c5.269,2.28 7.709,4.974 8.373,7.129c0.665,2.154 -0.182,3.98 -2.127,5.299c-3.891,2.636 -12.175,2.355 -18.651,-6.831c-0.289,-0.412 -0.896,-0.5 -1.274,-0.186c-0.378,0.314 -0.46,0.975 -0.171,1.387c6.919,9.815 16.16,10.644 21.057,7.326c2.448,-1.659 3.825,-4.59 2.894,-7.61c-0.931,-3.02 -3.91,-5.935 -9.449,-8.331c-9.447,-4.087 -18.028,-7.194 -23.119,-11.613c-2.545,-2.208 -4.216,-4.686 -4.834,-7.833c-0.618,-3.147 -0.179,-7.028 1.737,-12.049c4.474,-11.722 12.316,-17.913 19.3,-24.236c6.985,-6.323 13.119,-12.934 13.299,-25.167c0.23,-15.587 6.684,-22.81 14.664,-31.823c0.068,0.069 0.089,0.105 0.221,0.206c11.365,8.862 20.798,22.771 24.974,34.648c2.429,6.909 5.212,12.804 8.014,19.211c2.803,6.407 4.658,13.3 3.35,22.41c-0.586,4.08 0.576,8.476 2.509,12.454c1.933,3.978 5.641,7.55 8.324,9.962c1.341,1.207 2.683,2.132 3.961,2.655c0.666,0.273 1.14,0.294 1.484,-0.492c0.315,-0.72 -0.38,-1.161 -0.86,-1.357c-1.003,-0.411 -2.191,-1.238 -3.423,-2.346c-2.465,-2.216 -6.057,-5.613 -7.872,-9.346c-1.814,-3.733 -2.836,-7.764 -2.34,-11.221c1.371,-9.545 -0.602,-16.978 -3.49,-23.581c-2.888,-6.603 -5.661,-12.443 -7.986,-19.057c-4.33,-12.315 -13.804,-26.254 -25.505,-35.377c-0.17,-0.134 -1.138,-1.118 -1.613,-1.05l-0.001,-0.003Zm-11.207,14.244c-4.281,6.176 -4.912,12.774 -5.016,19.827c-0.17,11.54 -5.733,17.429 -12.647,23.688c-1.473,1.334 -4.014,2.718 -5.561,4.125c1.949,-13.215 9.349,-33.756 23.224,-47.64Z" style="fill:url(#_Linear20);"/>
            <path d="M139.255,146.248c1.151,-0.987 2.063,-2.247 2.693,-3.665c3.129,-7.047 -0.677,-17.931 -13.767,-22.698c-6.412,-2.335 -15.32,-4.048 -22.868,-7.328c-3.775,-1.64 -7.192,-3.668 -9.762,-6.297c-2.571,-2.63 -4.337,-5.829 -4.861,-9.991c-0.633,-5.028 0.522,-8.374 2.728,-11.092c2.206,-2.719 5.567,-4.769 9.291,-6.648c7.448,-3.757 16.434,-6.88 20.085,-15.204c3.446,-7.855 1.499,-16.078 -0.29,-24.01c-1.79,-7.932 -4.723,-17.537 -1.363,-24.726c0.323,-0.642 -0.269,-1.562 -0.933,-1.45l-0.002,0.001c-0.291,0.049 -0.554,0.264 -0.68,0.554c-3.702,7.92 -0.572,18.17 1.221,26.113c1.791,7.943 3.549,15.579 0.433,22.685c-3.219,7.339 -11.647,10.423 -19.234,14.25c-3.794,1.914 -7.38,4.021 -9.887,7.11c-2.507,3.089 -3.843,7.21 -3.153,12.694c0.581,4.619 2.584,8.285 5.397,11.163c2.813,2.878 6.427,5.003 10.328,6.698c7.801,3.39 16.803,5.11 22.981,7.359c12.418,4.522 15.281,14.193 12.722,19.954c-1.279,2.88 -3.901,4.881 -7.704,4.954c-3.804,0.074 -8.842,-1.879 -14.687,-7.196c-0.37,-0.331 -0.984,-0.266 -1.288,0.137c-0.304,0.404 -0.244,1.072 0.126,1.403c6.071,5.522 11.511,7.713 15.904,7.629c2.141,-0.041 4.789,-1.259 6.57,-2.399Z" style="fill:url(#_Linear21);"/>
            <path d="M155.952,119.144c-1.854,-1.758 -5.573,-3.646 -9.875,-6.02c-4.302,-2.374 -9.124,-5.164 -12.93,-8.304c-3.807,-3.14 -6.514,-6.591 -6.843,-10.178c-0.328,-3.586 1.582,-7.695 7.711,-12.444c8.286,-6.419 12.177,-12.732 12.474,-19.62c0.296,-6.861 -2.92,-14.008 -8.276,-22.261c-0.019,-0.031 -0.044,-0.059 -0.056,-0.093c-3.971,-8.24 -14.473,-19.037 -17.047,-27.312c-0.128,-0.44 -0.57,-0.744 -0.99,-0.679c-0.518,0.093 -0.879,0.753 -0.709,1.294c2.81,9.035 13.504,19.942 17.216,27.712l0.057,0.124c5.304,8.156 8.258,14.977 7.993,21.12c-0.264,6.143 -3.686,11.874 -11.735,18.11c-6.395,4.955 -8.832,9.744 -8.421,14.231c0.411,4.487 3.537,8.28 7.521,11.566c3.983,3.285 8.892,6.104 13.213,8.489c4.178,2.306 7.868,4.29 9.362,5.609c0.051,0.045 1.212,0.85 1.722,0.167c0.51,-0.683 -0.387,-1.511 -0.387,-1.511Z" style="fill:url(#_Linear22);"/>
        </g>
    </g>
    <path id="Container1" serif:id="Container" d="M206.023,125.965l2.291,-2.292l0,104.1c0,0.816 -0.434,1.571 -1.139,1.981l-68.8,40c-0.009,0.005 -0.018,0.01 -0.026,0.015l-3.9,2.2c-0.287,0.162 -0.603,0.259 -0.929,0.287c-0.61,0.195 -1.282,0.128 -1.849,-0.202l-8.59,-4.994l-4.39,-2.494c-0.007,-0.004 -0.014,-0.008 -0.02,-0.012l-12.89,-7.494l-4.39,-2.494c-0.007,-0.004 -0.014,-0.008 -0.02,-0.012l-4.3,-2.5c-0.009,-0.005 -0.018,-0.01 -0.027,-0.016l-0.977,-0.586l-4.376,-2.486c-0.007,-0.004 -0.014,-0.008 -0.02,-0.012l-12.89,-7.494l-4.39,-2.494c-0.007,-0.004 -0.014,-0.008 -0.02,-0.012l-8.59,-4.994l-4.39,-2.494c-0.007,-0.004 -0.014,-0.008 -0.02,-0.012l-4.3,-2.5l-0.003,-0.001l-4.8,-2.8c-0.403,-0.235 -0.725,-0.588 -0.922,-1.011l-2.1,-4.5c-0.01,-0.022 -0.02,-0.044 -0.03,-0.066l-0.001,-0.003l-7.934,-4.613l-4.09,-2.324l-2.125,1.223c-0.698,0.402 -1.556,0.408 -2.26,0.015l-10.285,-5.739c-0.726,-0.405 -1.175,-1.171 -1.175,-2.001l-0,-104.1c-0,-0.817 0.434,-1.571 1.14,-1.982l4.3,-2.5c0.006,-0.003 0.013,-0.007 0.019,-0.011l1.931,-1.097l7.919,-4.572l3.131,-1.82c0.006,-0.003 0.013,-0.007 0.019,-0.011l1.405,-0.798l9.612,-5.549l6.264,-3.642c0.006,-0.003 0.013,-0.007 0.019,-0.011l2.817,-1.6l5.067,-2.925l5.097,-2.964c0.006,-0.003 0.013,-0.007 0.019,-0.011l2.291,-1.301l6.759,-3.902c0,-0 1.857,-1.08 1.857,-1.079c2.645,-14.315 9.214,-30.452 23.981,-45.574c0.092,-0.1 3.542,-3.632 6.87,-7.132c1.317,-1.558 3.988,-4.389 4.549,-4.906c0.028,-0.026 0.056,-0.05 0.08,-0.071c0.056,-0.063 0.111,-0.125 0.164,-0.185c0.501,-0.58 1.192,-0.956 1.915,-1.068c-1.18,0.183 -2.021,1.241 -1.934,2.431c-0.086,-1.199 0.771,-2.261 1.962,-2.431c0.448,-0.064 1.005,-0.016 1.591,0.245c0.599,0.268 1.635,1.158 1.794,1.296c2.491,1.945 4.884,4.101 7.143,6.401c9.17,9.004 16.406,19.557 20.076,29.993c2.306,6.559 5.06,12.35 7.924,18.898c1.933,4.42 3.467,9.197 3.959,14.667c0.906,2.961 1.646,6.102 2.511,8.471c1.789,0.298 3.319,0.793 4.629,1.431c2.946,1.435 4.833,3.59 6.029,6.05l0.002,0.004c0.015,0.032 0.03,0.064 0.046,0.096l0.001,0.003c1.194,2.506 1.651,5.339 1.782,7.991l4.069,2.312c0.006,0.003 0.013,0.007 0.02,0.011l8.59,4.994l4.39,2.495c0.006,0.003 0.013,0.007 0.02,0.011l6.775,3.939l3.099,1.785l3.106,1.765c0.016,0.009 0.031,0.018 0.047,0.027l0.916,0.55l-1.095,3.956l-0,-2.041l-0.084,0.05l-0.916,-0.55l-3.112,-1.768l-3.109,-1.79l-6.779,-3.942l-4.4,-2.5l-8.6,-5l-4.4,-2.5l-0.788,-0.458c-0.035,-2.697 -0.35,-5.728 -1.599,-8.351c-0.014,-0.029 -0.028,-0.058 -0.042,-0.087c-0.987,-2.029 -2.541,-3.808 -4.971,-4.991c-1.429,-0.696 -3.16,-1.185 -5.256,-1.398c-0.046,-0.104 -0.092,-0.21 -0.137,-0.318c-1.066,-2.544 -1.923,-6.311 -3.005,-9.802c-0.446,-5.309 -1.931,-9.925 -3.798,-14.193c-2.888,-6.603 -5.661,-12.443 -7.986,-19.057c-3.565,-10.138 -10.616,-20.377 -19.525,-29.124c-2.213,-2.253 -4.549,-4.357 -6.98,-6.253c-0.17,-0.134 -1.138,-1.118 -1.613,-1.05l-0.001,-0.003c-0.205,0.032 -0.398,0.142 -0.538,0.308c-0.102,0.115 -0.208,0.235 -0.319,0.358c-0.022,-0.025 -0.727,0.694 -1.609,1.632c-0.033,-0.033 -0.066,-0.067 -0.098,-0.102c0.032,0.034 0.064,0.069 0.098,0.102c-0.971,1.033 -2.156,2.329 -2.881,3.191c-3.341,3.516 -6.816,7.074 -6.909,7.173c-14.773,15.13 -21.136,31.258 -23.585,45.456l-2.777,1.614l-6.769,3.908l-2.297,1.306l-5.1,2.965l-5.077,2.931l-2.823,1.604l-6.267,3.643l-9.622,5.555l-1.411,0.802l-3.134,1.821l-7.929,4.578l-1.937,1.101l-4.3,2.5l-0,104.1l10.285,5.739l3.3,-1.9l0.8,0.5l4.4,2.5l8.6,5l0.3,0.7l2.1,4.5l4.8,2.8l4.3,2.5l4.4,2.5l8.6,5l4.4,2.5l12.9,7.5l4.4,2.5l1,0.6l4.3,2.5l4.4,2.5l12.9,7.5l4.4,2.5l6.913,4.02c-0.069,0.221 -0.106,0.454 -0.105,0.691l2.222,2.217l-0.519,-1.98l0.089,0.052l0.5,-0.295l-0,0.195l3.9,-2.2l68.8,-40l-0,-101.808Z" style="fill:rgb(255,229,217);"/>
    <g>
        <path d="M268.917,127.09c2.769,-20.523 9.284,-40.231 12.867,-60.591c0.326,-2.28 0.815,-4.56 0.815,-7.004c-0,-3.094 -0.489,-5.212 -4.072,-5.212l-1.14,0.163l-0.652,0c-9.935,0 -21.337,63.686 -22.477,72.318c-1.629,11.239 -2.932,22.64 -2.932,33.879c0,3.583 0.163,13.356 5.701,13.356c5.212,-0 6.026,-9.61 6.841,-13.193c2.28,-10.587 6.515,-21.012 10.75,-30.947c7.004,-16.288 32.25,-67.269 44.14,-67.269c5.049,0 5.7,12.867 5.7,16.288c0,14.007 -1.465,33.064 -4.886,46.746c-22.803,18.568 -55.704,49.026 -55.704,70.689c-0,8.958 5.538,14.659 14.333,14.659c27.364,0 51.144,-51.958 56.03,-77.204c0.489,-2.443 0.977,-4.724 1.629,-7.33c8.144,-5.538 14.333,-8.144 14.333,-10.261c0,-1.955 -1.629,-3.095 -3.42,-3.095c-2.281,0 -6.027,1.629 -9.121,3.421c1.628,-8.47 2.769,-16.94 2.769,-25.572c-0,-8.497 -0.998,-23.211 -7.208,-31.603c-2.837,-3.833 -6.761,-6.348 -12.175,-6.348c-24.595,0 -46.257,55.053 -52.121,74.11Zm12.216,72.481c-4.724,-0 -7.167,-2.932 -7.167,-8.307c0,-16.451 22.803,-38.439 43.163,-54.89c-5.864,23.617 -18.894,63.197 -35.996,63.197Z" style="fill:url(#_Linear23);fill-rule:nonzero;"/>
        <path d="M277.105,98.822c5.617,-12.415 12.863,-25.695 21.053,-35.08c7.052,-8.08 14.879,-13.262 22.88,-13.262c6.301,0 10.883,2.899 14.185,7.361c6.508,8.796 7.698,24.184 7.698,33.09c-0,7.125 -0.759,14.143 -1.93,21.138c2.179,-0.896 4.272,-1.487 5.782,-1.487c3.164,0 5.92,2.143 5.92,5.595c0,1.16 -0.683,2.625 -2.508,4.066c-2.251,1.777 -6.715,4.114 -12.128,7.73c-0.53,2.186 -0.952,4.172 -1.373,6.28c-2.988,15.423 -12.892,40.629 -26.357,58.328c-9.357,12.299 -20.512,20.891 -32.126,20.891c-5.16,0 -9.339,-1.738 -12.254,-4.724c-2.896,-2.967 -4.579,-7.213 -4.579,-12.435c-0,-9.102 5.387,-19.745 13.556,-30.413c11.594,-15.142 28.71,-30.478 42.42,-41.685c3.235,-13.439 4.614,-31.784 4.614,-45.337c0,-1.918 -0.201,-7.015 -1.396,-10.785c-0.268,-0.845 -0.581,-1.618 -0.978,-2.233c-0.244,-0.379 -0.435,-0.77 -0.826,-0.77c-0.997,0 -2.074,0.631 -3.301,1.553c-2.489,1.87 -5.249,5.004 -8.149,8.893c-11.831,15.866 -25.533,44.008 -30.392,55.307c-4.173,9.79 -8.357,20.057 -10.604,30.489c-0.002,0.009 -0.004,0.018 -0.006,0.028c-0.515,2.263 -1.07,6.8 -2.585,10.076c-1.409,3.048 -3.631,5.063 -6.694,5.063c-3.3,-0 -5.491,-2.117 -6.725,-5.254c-1.362,-3.459 -1.476,-8.248 -1.476,-10.602c0,-11.353 1.311,-22.87 2.954,-34.208c0.923,-6.992 8.526,-49.614 16.662,-66.388c1.373,-2.83 2.801,-4.978 4.18,-6.266c1.361,-1.271 2.774,-1.835 4.113,-1.835l0.474,0l0.964,-0.138c0.117,-0.016 0.236,-0.025 0.354,-0.025c2.304,0 3.761,0.697 4.741,1.668c1.311,1.3 1.831,3.383 1.831,6.044c-0,2.566 -0.498,4.963 -0.84,7.358c-0.004,0.026 -0.008,0.053 -0.012,0.08c-1.891,10.739 -4.599,21.297 -7.142,31.889Zm-8.188,28.268c2.769,-20.523 9.284,-40.231 12.867,-60.591c0.326,-2.28 0.815,-4.56 0.815,-7.004c-0,-3.094 -0.489,-5.212 -4.072,-5.212l-1.14,0.163l-0.652,0c-9.935,0 -21.337,63.686 -22.477,72.318c-1.629,11.239 -2.932,22.64 -2.932,33.879c0,3.583 0.163,13.356 5.701,13.356c5.212,-0 6.026,-9.61 6.841,-13.193c2.28,-10.587 6.515,-21.012 10.75,-30.947c7.004,-16.288 32.25,-67.269 44.14,-67.269c5.049,0 5.7,12.867 5.7,16.288c0,14.007 -1.465,33.064 -4.886,46.746c-22.803,18.568 -55.704,49.026 -55.704,70.689c-0,8.958 5.538,14.659 14.333,14.659c27.364,0 51.144,-51.958 56.03,-77.204c0.489,-2.443 0.977,-4.724 1.629,-7.33c8.144,-5.538 14.333,-8.144 14.333,-10.261c0,-1.955 -1.629,-3.095 -3.42,-3.095c-2.281,0 -6.027,1.629 -9.121,3.421c1.628,-8.47 2.769,-16.94 2.769,-25.572c-0,-8.497 -0.998,-23.211 -7.208,-31.603c-2.837,-3.833 -6.761,-6.348 -12.175,-6.348c-24.595,0 -46.257,55.053 -52.121,74.11Zm12.216,72.481c-4.724,-0 -7.167,-2.932 -7.167,-8.307c0,-16.451 22.803,-38.439 43.163,-54.89c-5.864,23.617 -18.894,63.197 -35.996,63.197Zm-0,-2.5c2.852,-0 5.529,-1.406 8.089,-3.676c2.899,-2.571 5.603,-6.23 8.124,-10.532c6.57,-11.21 11.821,-26.691 15.397,-39.623c-10.204,8.63 -20.406,18.361 -27.441,27.825c-5.304,7.137 -8.836,14.055 -8.836,20.199c0,1.966 0.334,3.517 1.212,4.544c0.767,0.896 1.948,1.263 3.455,1.263Z" style="fill:rgb(255,229,217);"/>
        <path d="M362.898,185.889c12.216,-0 22.803,-12.542 27.526,-27.852c9.936,-1.14 23.617,-11.076 23.617,-17.265c0,-1.466 -0.814,-2.932 -1.954,-3.258c-5.049,4.072 -13.845,8.958 -19.383,10.424c0.326,-2.117 0.326,-4.235 0.326,-6.352c0,-16.125 -8.632,-30.621 -18.405,-30.621c-7.981,-0 -16.939,9.61 -16.939,18.079l-0,1.141c-7.981,6.515 -12.542,17.265 -12.542,29.318c0,15.31 7.492,26.386 17.754,26.386Zm20.197,-39.742c-7.004,-3.909 -14.822,-12.053 -14.822,-16.94c-0,-2.932 3.094,-6.352 6.026,-6.352c4.724,0 8.958,9.284 8.958,19.545c0,1.303 0,2.444 -0.162,3.747Zm-1.792,10.587c-2.769,10.424 -7.981,19.382 -14.17,19.382c-4.398,0 -8.47,-7.166 -8.47,-14.985c-0,-6.189 2.606,-14.007 5.375,-17.59c4.56,5.7 11.076,10.75 17.265,13.193Z" style="fill:url(#_Linear24);fill-rule:nonzero;"/>
        <path d="M355.186,129.028c0.005,-4.811 2.474,-9.976 6.151,-13.907c3.736,-3.995 8.682,-6.656 13.288,-6.656c4.592,-0 9.049,2.587 12.649,7.069c4.895,6.093 8.256,15.752 8.256,26.052c0,0.918 -0.001,1.836 -0.027,2.755c5.005,-2.033 11.155,-5.66 15.015,-8.773c0.632,-0.51 1.474,-0.681 2.256,-0.458c2.041,0.583 3.767,3.037 3.767,5.662c0,2.331 -1.372,5.172 -3.873,7.924c-4.646,5.113 -13.154,10.19 -20.337,11.573c-3.053,9.071 -8.095,17.072 -14.233,22.151c-4.568,3.78 -9.749,5.969 -15.2,5.969c-11.383,-0 -20.254,-11.902 -20.254,-28.886c0,-12.393 4.589,-23.465 12.542,-30.475Zm7.712,56.861c12.216,-0 22.803,-12.542 27.526,-27.852c9.936,-1.14 23.617,-11.076 23.617,-17.265c0,-1.466 -0.814,-2.932 -1.954,-3.258c-5.049,4.072 -13.845,8.958 -19.383,10.424c0.326,-2.117 0.326,-4.235 0.326,-6.352c0,-16.125 -8.632,-30.621 -18.405,-30.621c-7.981,-0 -16.939,9.61 -16.939,18.079l-0,1.141c-7.981,6.515 -12.542,17.265 -12.542,29.318c0,15.31 7.492,26.386 17.754,26.386Zm20.197,-39.742c-7.004,-3.909 -14.822,-12.053 -14.822,-16.94c-0,-2.932 3.094,-6.352 6.026,-6.352c4.724,0 8.958,9.284 8.958,19.545c0,1.303 0,2.444 -0.162,3.747Zm-2.346,-4.501c-0.113,-5.356 -1.429,-10.361 -3.388,-13.561c-0.568,-0.928 -1.178,-1.689 -1.844,-2.204c-0.396,-0.305 -0.791,-0.526 -1.218,-0.526c-0.834,0 -1.636,0.588 -2.285,1.283c-0.694,0.744 -1.241,1.676 -1.241,2.569c-0,1.544 1.137,3.429 2.677,5.417c1.913,2.471 4.545,4.984 7.299,7.022Zm0.554,15.088c-2.769,10.424 -7.981,19.382 -14.17,19.382c-4.398,0 -8.47,-7.166 -8.47,-14.985c-0,-6.189 2.606,-14.007 5.375,-17.59c4.56,5.7 11.076,10.75 17.265,13.193Zm-3.002,1.417c-4.918,-2.341 -9.892,-6.086 -13.914,-10.392c-1.815,3.677 -3.224,8.979 -3.224,13.372c-0,4.095 1.231,8 3.084,10.457c0.87,1.152 1.805,2.028 2.886,2.028c1.824,0 3.45,-1.199 4.975,-2.958c2.556,-2.949 4.666,-7.473 6.193,-12.507Z" style="fill:rgb(255,229,217);"/>
        <path d="M422.348,197.127c17.428,0 49.515,-46.42 50.655,-55.215c-0.814,-1.955 -1.954,-3.258 -2.931,-3.258c-6.678,0 -30.947,45.443 -43.489,45.443c-3.583,0 -5.864,-4.723 -5.864,-11.89c0,-10.098 1.141,-26.549 3.584,-32.576c23.291,-11.727 42.348,-42.022 42.348,-65.477c0,-11.564 -4.886,-19.056 -12.216,-19.056c-24.92,-0 -47.886,64.499 -47.886,107.825c0,22.151 5.538,34.204 15.799,34.204Zm4.724,-70.526c1.791,-17.265 20.197,-60.102 26.06,-60.102c2.118,0 2.118,5.212 2.118,6.515c-0,16.125 -13.031,41.697 -28.178,53.587Z" style="fill:url(#_Linear25);fill-rule:nonzero;"/>
        <path d="M422.348,199.627c-6.071,0 -10.862,-3.406 -14.017,-10.248c-2.779,-6.023 -4.282,-14.919 -4.282,-26.456c0,-30.803 11.471,-72.132 27.01,-94.164c7.129,-10.109 15.248,-16.161 23.376,-16.161c8.452,-0 14.716,8.222 14.716,21.556c0,23.946 -19.17,54.821 -42.84,67.256c-2.153,6.421 -3.092,21.429 -3.092,30.797c0,3.123 0.446,5.723 1.333,7.532c0.522,1.064 1.114,1.858 2.031,1.858c1.105,0 2.303,-0.563 3.619,-1.409c1.662,-1.068 3.426,-2.605 5.259,-4.45c5.859,-5.892 12.308,-14.817 18.017,-22.57c4.616,-6.27 8.78,-11.792 11.792,-14.551c1.885,-1.727 3.6,-2.463 4.802,-2.463c0.748,0 1.556,0.234 2.346,0.788c1.003,0.704 2.1,2.105 2.893,4.008c0.169,0.405 0.228,0.848 0.172,1.283c-0.228,1.754 -1.493,4.889 -3.647,8.801c-4.611,8.371 -13.292,20.777 -22.619,30.886c-5.422,5.876 -11.071,10.974 -16.268,14.124c-3.81,2.31 -7.432,3.583 -10.601,3.583Zm0,-2.5c17.428,0 49.515,-46.42 50.655,-55.215c-0.814,-1.955 -1.954,-3.258 -2.931,-3.258c-6.678,0 -30.947,45.443 -43.489,45.443c-3.583,0 -5.864,-4.723 -5.864,-11.89c0,-10.098 1.141,-26.549 3.584,-32.576c23.291,-11.727 42.348,-42.022 42.348,-65.477c0,-11.564 -4.886,-19.056 -12.216,-19.056c-24.92,-0 -47.886,64.499 -47.886,107.825c0,22.151 5.538,34.204 15.799,34.204Zm4.724,-70.526c1.791,-17.265 20.197,-60.102 26.06,-60.102c2.118,0 2.118,5.212 2.118,6.515c-0,16.125 -13.031,41.697 -28.178,53.587Zm25.459,-56.846c-0.053,0.053 -0.104,0.106 -0.152,0.159c-1.428,1.571 -3.114,4.207 -4.933,7.51c-6.131,11.132 -13.544,29.628 -16.601,42.386c12.218,-12.598 21.905,-33.179 21.905,-46.796c-0,-0.554 0.006,-1.906 -0.201,-3.162c-0.005,-0.031 -0.011,-0.064 -0.018,-0.097Z" style="fill:rgb(255,229,217);"/>
        <path d="M478.053,184.26c14.984,0 29.155,-16.776 35.507,-28.341c1.14,-2.117 6.678,-12.378 6.678,-14.007c0,-1.792 -1.14,-3.258 -3.095,-3.258c-8.306,7.167 -24.92,37.462 -35.67,37.462c-3.746,0 -6.515,-4.56 -6.515,-10.75c-0,-10.424 8.47,-40.231 16.939,-40.231c1.792,0 3.095,1.955 3.095,4.887c-0,5.212 -4.072,13.03 1.792,13.03c5.212,-0 8.144,-8.47 8.144,-14.008c-0,-7.818 -6.027,-13.681 -13.845,-13.681c-20.034,-0 -28.667,27.526 -28.667,44.791c0,14.659 6.027,24.106 15.637,24.106Z" style="fill:url(#_Linear26);fill-rule:nonzero;"/>
        <path d="M491.846,127.636c-0.695,0.023 -1.331,0.516 -2.013,1.161c-1.093,1.034 -2.143,2.525 -3.16,4.301c-5.197,9.072 -9.215,25.24 -9.215,32.268c-0,2.569 0.527,4.811 1.49,6.4c0.652,1.075 1.473,1.85 2.525,1.85c1.296,0 2.67,-0.672 4.148,-1.676c2.787,-1.892 5.752,-4.989 8.745,-8.554c7.998,-9.525 16.101,-22.274 21.144,-26.625c0.454,-0.391 1.034,-0.607 1.633,-0.607c3.493,0 5.595,2.557 5.595,5.758c0,0.486 -0.231,1.516 -0.774,2.831c-1.481,3.596 -5.273,10.635 -6.203,12.362c-0.003,0.006 -0.006,0.012 -0.01,0.018c-3.953,7.196 -10.835,16.33 -19.056,22.492c-5.739,4.301 -12.134,7.145 -18.642,7.145c-10.77,0 -18.137,-10.178 -18.137,-26.606c0,-10.804 3.278,-25.449 10.384,-35.446c5.023,-7.066 11.921,-11.845 20.783,-11.845c9.238,-0 16.345,6.943 16.345,16.181c-0,3.755 -1.216,8.696 -3.443,12.054c-1.82,2.745 -4.312,4.454 -7.201,4.454c-2.093,-0 -3.419,-0.711 -4.293,-1.679c-0.848,-0.938 -1.316,-2.234 -1.37,-3.821c-0.094,-2.776 1.371,-6.877 1.371,-10.03c-0,-0.763 -0.11,-1.428 -0.347,-1.947c-0.074,-0.163 -0.247,-0.377 -0.299,-0.439Zm-13.793,56.624c14.984,0 29.155,-16.776 35.507,-28.341c1.14,-2.117 6.678,-12.378 6.678,-14.007c0,-1.792 -1.14,-3.258 -3.095,-3.258c-8.306,7.167 -24.92,37.462 -35.67,37.462c-3.746,0 -6.515,-4.56 -6.515,-10.75c-0,-10.424 8.47,-40.231 16.939,-40.231c1.792,0 3.095,1.955 3.095,4.887c-0,5.212 -4.072,13.03 1.792,13.03c5.212,-0 8.144,-8.47 8.144,-14.008c-0,-7.818 -6.027,-13.681 -13.845,-13.681c-20.034,-0 -28.667,27.526 -28.667,44.791c0,14.659 6.027,24.106 15.637,24.106Z" style="fill:rgb(255,229,217);"/>
        <path d="M527.73,173.999c16.125,-0 35.019,-19.546 35.019,-32.413c0,-0.489 0,-0.814 -0.163,-1.303c-0.814,-0.977 -1.791,-1.629 -3.094,-1.629c-4.235,6.678 -17.754,26.061 -26.712,26.061c-5.05,-0 -7.167,-6.353 -7.167,-10.587l0,-0.815c11.402,-0.651 22.151,-14.985 22.151,-25.897c0,-6.353 -3.42,-9.936 -9.935,-9.936c-17.591,0 -26.712,22.314 -26.712,37.136c-0,8.144 6.678,19.383 16.613,19.383Zm11.891,-44.792c-0,4.561 -8.307,17.265 -13.356,17.591c0.325,-4.398 6.026,-21.174 11.564,-21.174c1.792,-0 1.792,2.443 1.792,3.583Z" style="fill:url(#_Linear27);fill-rule:nonzero;"/>
        <path d="M528.193,155.491c0.163,1.438 0.582,3.002 1.302,4.317c0.715,1.304 1.73,2.407 3.285,2.407c1.07,-0 2.212,-0.419 3.414,-1.062c2.23,-1.192 4.57,-3.16 6.873,-5.458c6.09,-6.079 11.831,-14.466 14.313,-18.38c0.459,-0.723 1.256,-1.161 2.112,-1.161c2.092,0 3.707,0.959 5.015,2.529c0.199,0.239 0.353,0.514 0.451,0.809c0.262,0.787 0.291,1.307 0.291,2.094c0,6.957 -4.94,15.809 -12.227,22.832c-7.22,6.958 -16.654,12.081 -25.292,12.081c-5.77,-0 -10.64,-3.178 -14.022,-7.624c-3.255,-4.279 -5.091,-9.707 -5.091,-14.259c-0,-9.392 3.488,-21.626 10.276,-29.916c4.763,-5.818 11.113,-9.72 18.936,-9.72c4.056,0 7.11,1.224 9.189,3.329c2.077,2.102 3.246,5.155 3.246,9.107c0,5.962 -2.871,12.884 -7.364,18.379c-3.988,4.876 -9.229,8.583 -14.707,9.696Zm-0.463,18.508c16.125,-0 35.019,-19.546 35.019,-32.413c0,-0.489 0,-0.814 -0.163,-1.303c-0.814,-0.977 -1.791,-1.629 -3.094,-1.629c-4.235,6.678 -17.754,26.061 -26.712,26.061c-5.05,-0 -7.167,-6.353 -7.167,-10.587l0,-0.815c11.402,-0.651 22.151,-14.985 22.151,-25.897c0,-6.353 -3.42,-9.936 -9.935,-9.936c-17.591,0 -26.712,22.314 -26.712,37.136c-0,8.144 6.678,19.383 16.613,19.383Zm11.891,-44.792c-0,4.561 -8.307,17.265 -13.356,17.591c0.325,-4.398 6.026,-21.174 11.564,-21.174c1.792,-0 1.792,2.443 1.792,3.583Zm-9.545,12.267c0.387,-0.409 0.773,-0.844 1.153,-1.298c1.945,-2.328 3.728,-5.156 4.841,-7.598c0.613,-1.346 1.051,-2.529 1.051,-3.371c-0,-0.161 -0.023,-0.445 -0.051,-0.727c-0.053,0.042 -0.107,0.085 -0.162,0.129c-0.655,0.525 -1.284,1.285 -1.9,2.178c-2.013,2.915 -3.79,7.151 -4.932,10.687Z" style="fill:rgb(255,229,217);"/>
    </g>
    <defs>
        <filter id="_Effect1" filterUnits="userSpaceOnUse" x="26.5821" y="8.87026" width="202.372" height="208.734">
            <feGaussianBlur in="SourceGraphic" stdDeviation="5.591"/>
        </filter>
        <linearGradient id="_Linear2" x1="0" y1="0" x2="1" y2="0.0430765" gradientUnits="userSpaceOnUse" gradientTransform="matrix(-31.1896,135.956,-124.882,-33.9555,158.674,7.42782)"><stop offset="0" style="stop-color:rgb(52,65,78);stop-opacity:0.36"/><stop offset="0.18" style="stop-color:rgb(63,92,95);stop-opacity:0"/><stop offset="0.34" style="stop-color:rgb(64,87,93);stop-opacity:0.33"/><stop offset="0.72" style="stop-color:rgb(60,89,101);stop-opacity:0"/><stop offset="1" style="stop-color:rgb(83,108,112);stop-opacity:0.64"/></linearGradient>
        <linearGradient id="_Linear3" x1="0" y1="0" x2="1" y2="0.0177201" gradientUnits="userSpaceOnUse" gradientTransform="matrix(-11.7092,131.789,-121.054,-12.7476,118.63,11.9196)"><stop offset="0" style="stop-color:rgb(42,61,73);stop-opacity:0.08"/><stop offset="0.09" style="stop-color:rgb(122,154,177);stop-opacity:0"/><stop offset="0.39" style="stop-color:rgb(47,76,84);stop-opacity:0.22"/><stop offset="0.77" style="stop-color:rgb(119,173,180);stop-opacity:0"/><stop offset="1" style="stop-color:rgb(48,78,86);stop-opacity:0.58"/></linearGradient>
        <linearGradient id="_Linear4" x1="0" y1="0" x2="1" y2="-0.00657136" gradientUnits="userSpaceOnUse" gradientTransform="matrix(4.32446,132.505,-121.712,4.70796,118.63,11.9196)"><stop offset="0" style="stop-color:rgb(52,65,78);stop-opacity:0.36"/><stop offset="0.18" style="stop-color:rgb(63,92,95);stop-opacity:0"/><stop offset="0.52" style="stop-color:rgb(64,87,93);stop-opacity:0.19"/><stop offset="0.77" style="stop-color:rgb(60,89,101);stop-opacity:0"/><stop offset="1" style="stop-color:rgb(83,108,112);stop-opacity:0.64"/></linearGradient>
        <linearGradient id="_Linear5" x1="0" y1="0" x2="1" y2="-0.0690415" gradientUnits="userSpaceOnUse" gradientTransform="matrix(50.8097,117.552,-107.977,55.3156,122.251,13.8957)"><stop offset="0" style="stop-color:rgb(42,61,73);stop-opacity:0"/><stop offset="0.2" style="stop-color:rgb(122,154,177);stop-opacity:0.29"/><stop offset="0.52" style="stop-color:rgb(47,76,84);stop-opacity:0.04"/><stop offset="0.69" style="stop-color:rgb(119,173,180);stop-opacity:0"/><stop offset="1" style="stop-color:rgb(48,78,86);stop-opacity:0.58"/></linearGradient>
        <linearGradient id="_Linear6" x1="0" y1="0" x2="1" y2="-0.0634476" gradientUnits="userSpaceOnUse" gradientTransform="matrix(28.6513,75.8605,-69.6811,31.1922,150.478,56.9745)"><stop offset="0" style="stop-color:rgb(52,65,78);stop-opacity:0.36"/><stop offset="0.18" style="stop-color:rgb(63,92,95);stop-opacity:0"/><stop offset="0.46" style="stop-color:rgb(64,87,93);stop-opacity:0.33"/><stop offset="0.72" style="stop-color:rgb(60,89,101);stop-opacity:0"/><stop offset="1" style="stop-color:rgb(83,108,112);stop-opacity:0.64"/></linearGradient>
        <linearGradient id="_Linear7" x1="0" y1="0" x2="1" y2="-0.07083" gradientUnits="userSpaceOnUse" gradientTransform="matrix(26.8538,59.3985,-54.56,29.2352,150.478,56.9745)"><stop offset="0" style="stop-color:rgb(52,65,78);stop-opacity:0.36"/><stop offset="0.18" style="stop-color:rgb(63,92,95);stop-opacity:0"/><stop offset="0.37" style="stop-color:rgb(64,87,93);stop-opacity:0.33"/><stop offset="0.72" style="stop-color:rgb(60,89,101);stop-opacity:0"/><stop offset="1" style="stop-color:rgb(83,108,112);stop-opacity:0.64"/></linearGradient>
        <linearGradient id="_Linear8" x1="0" y1="0" x2="1" y2="-0.0120663" gradientUnits="userSpaceOnUse" gradientTransform="matrix(10.3596,172.257,-158.225,11.2783,118.63,11.9196)"><stop offset="0" style="stop-color:rgb(42,61,73);stop-opacity:0.08"/><stop offset="0.46" style="stop-color:rgb(122,154,177);stop-opacity:0"/><stop offset="0.64" style="stop-color:rgb(47,76,84);stop-opacity:0.22"/><stop offset="0.77" style="stop-color:rgb(119,173,180);stop-opacity:0"/><stop offset="1" style="stop-color:rgb(48,78,86);stop-opacity:0.58"/></linearGradient>
        <linearGradient id="_Linear9" x1="0" y1="0" x2="1" y2="-0.0120663" gradientUnits="userSpaceOnUse" gradientTransform="matrix(10.3596,172.257,-158.225,11.2783,118.63,11.9196)"><stop offset="0" style="stop-color:rgb(42,61,73);stop-opacity:0.08"/><stop offset="0.46" style="stop-color:rgb(122,154,177);stop-opacity:0"/><stop offset="0.64" style="stop-color:rgb(47,76,84);stop-opacity:0.22"/><stop offset="0.77" style="stop-color:rgb(119,173,180);stop-opacity:0"/><stop offset="1" style="stop-color:rgb(48,78,86);stop-opacity:0.58"/></linearGradient>
        <linearGradient id="_Linear10" x1="0" y1="0" x2="1" y2="-0.0120663" gradientUnits="userSpaceOnUse" gradientTransform="matrix(10.3596,172.257,-158.225,11.2783,118.63,11.9196)"><stop offset="0" style="stop-color:rgb(42,61,73);stop-opacity:0.08"/><stop offset="0.46" style="stop-color:rgb(122,154,177);stop-opacity:0"/><stop offset="0.64" style="stop-color:rgb(47,76,84);stop-opacity:0.22"/><stop offset="0.77" style="stop-color:rgb(119,173,180);stop-opacity:0"/><stop offset="1" style="stop-color:rgb(48,78,86);stop-opacity:0.58"/></linearGradient>
        <linearGradient id="_Linear11" x1="0" y1="0" x2="1" y2="-0.0319362" gradientUnits="userSpaceOnUse" gradientTransform="matrix(24.061,146.371,-134.448,26.1947,69.1966,83.3716)"><stop offset="0" style="stop-color:rgb(42,61,73);stop-opacity:0.08"/><stop offset="0.22" style="stop-color:rgb(122,154,177);stop-opacity:0"/><stop offset="0.39" style="stop-color:rgb(47,76,84);stop-opacity:0.43"/><stop offset="0.77" style="stop-color:rgb(119,173,180);stop-opacity:0"/><stop offset="1" style="stop-color:rgb(48,78,86);stop-opacity:0.58"/></linearGradient>
        <linearGradient id="_Linear12" x1="0" y1="0" x2="1" y2="0.0436414" gradientUnits="userSpaceOnUse" gradientTransform="matrix(-21.2768,91.3524,-83.9111,-23.1637,108.651,28.1831)"><stop offset="0" style="stop-color:rgb(42,61,73);stop-opacity:0.16"/><stop offset="0.46" style="stop-color:rgb(122,154,177);stop-opacity:0"/><stop offset="0.62" style="stop-color:rgb(47,76,84);stop-opacity:0.22"/><stop offset="0.77" style="stop-color:rgb(119,173,180);stop-opacity:0"/><stop offset="1" style="stop-color:rgb(48,78,86);stop-opacity:0.58"/></linearGradient>
        <linearGradient id="_Linear13" x1="0" y1="0" x2="1" y2="-0.0390553" gradientUnits="userSpaceOnUse" gradientTransform="matrix(27.2433,132.815,-121.996,29.6593,121.796,16.3608)"><stop offset="0" style="stop-color:rgb(42,61,73);stop-opacity:0.08"/><stop offset="0.34" style="stop-color:rgb(122,154,177);stop-opacity:0"/><stop offset="0.67" style="stop-color:rgb(47,76,84);stop-opacity:0.22"/><stop offset="0.83" style="stop-color:rgb(75,129,136);stop-opacity:0.22"/><stop offset="1" style="stop-color:rgb(48,78,86);stop-opacity:0.06"/></linearGradient>
        <linearGradient id="_Linear14" x1="0" y1="0" x2="1" y2="-0.0136284" gradientUnits="userSpaceOnUse" gradientTransform="matrix(7.51412,110.465,-101.467,8.18048,120.225,29.6027)"><stop offset="0" style="stop-color:rgb(249,50,94);stop-opacity:1"/><stop offset="1" style="stop-color:rgb(198,211,213);stop-opacity:0"/></linearGradient>
        <linearGradient id="_Linear15" x1="0" y1="0" x2="1" y2="-0.0136284" gradientUnits="userSpaceOnUse" gradientTransform="matrix(7.51412,110.465,-101.467,8.18048,120.225,29.6027)"><stop offset="0" style="stop-color:rgb(249,50,94);stop-opacity:1"/><stop offset="1" style="stop-color:rgb(198,211,213);stop-opacity:0"/></linearGradient>
        <linearGradient id="_Linear16" x1="0" y1="0" x2="1" y2="-0.0136284" gradientUnits="userSpaceOnUse" gradientTransform="matrix(7.51412,110.465,-101.467,8.18048,120.225,29.6027)"><stop offset="0" style="stop-color:rgb(249,50,94);stop-opacity:1"/><stop offset="1" style="stop-color:rgb(198,211,213);stop-opacity:0"/></linearGradient>
        <linearGradient id="_Linear17" x1="0" y1="0" x2="1" y2="-0.0136284" gradientUnits="userSpaceOnUse" gradientTransform="matrix(7.51412,110.465,-101.467,8.18048,120.225,30.6027)"><stop offset="0" style="stop-color:rgb(255,122,152);stop-opacity:1"/><stop offset="1" style="stop-color:rgb(198,211,213);stop-opacity:0"/></linearGradient>
        <linearGradient id="_Linear18" x1="0" y1="0" x2="1" y2="-0.0136284" gradientUnits="userSpaceOnUse" gradientTransform="matrix(7.51412,110.465,-101.467,8.18048,120.225,30.6027)"><stop offset="0" style="stop-color:rgb(255,122,152);stop-opacity:1"/><stop offset="1" style="stop-color:rgb(198,211,213);stop-opacity:0"/></linearGradient>
        <linearGradient id="_Linear19" x1="0" y1="0" x2="1" y2="-0.0136284" gradientUnits="userSpaceOnUse" gradientTransform="matrix(7.51412,110.465,-101.467,8.18048,120.225,30.6027)"><stop offset="0" style="stop-color:rgb(255,122,152);stop-opacity:1"/><stop offset="1" style="stop-color:rgb(198,211,213);stop-opacity:0"/></linearGradient>
        <linearGradient id="_Linear20" x1="0" y1="0" x2="1" y2="-0.0136284" gradientUnits="userSpaceOnUse" gradientTransform="matrix(7.51412,110.465,-101.467,8.18048,121.225,30.6027)"><stop offset="0" style="stop-color:rgb(255,96,131);stop-opacity:1"/><stop offset="1" style="stop-color:rgb(198,211,213);stop-opacity:0"/></linearGradient>
        <linearGradient id="_Linear21" x1="0" y1="0" x2="1" y2="-0.0136284" gradientUnits="userSpaceOnUse" gradientTransform="matrix(7.51412,110.465,-101.467,8.18048,121.225,30.6027)"><stop offset="0" style="stop-color:rgb(255,96,131);stop-opacity:1"/><stop offset="1" style="stop-color:rgb(198,211,213);stop-opacity:0"/></linearGradient>
        <linearGradient id="_Linear22" x1="0" y1="0" x2="1" y2="-0.0136284" gradientUnits="userSpaceOnUse" gradientTransform="matrix(7.51412,110.465,-101.467,8.18048,121.225,30.6027)"><stop offset="0" style="stop-color:rgb(255,96,131);stop-opacity:1"/><stop offset="1" style="stop-color:rgb(198,211,213);stop-opacity:0"/></linearGradient>
        <linearGradient id="_Linear23" x1="0" y1="0" x2="1" y2="0" gradientUnits="userSpaceOnUse" gradientTransform="matrix(311.423,0,0,157.992,251.326,131.976)"><stop offset="0" style="stop-color:rgb(248,53,96);stop-opacity:1"/><stop offset="1" style="stop-color:rgb(236,118,146);stop-opacity:1"/></linearGradient>
        <linearGradient id="_Linear24" x1="0" y1="0" x2="1" y2="0" gradientUnits="userSpaceOnUse" gradientTransform="matrix(311.423,0,0,157.992,251.326,131.976)"><stop offset="0" style="stop-color:rgb(248,53,96);stop-opacity:1"/><stop offset="1" style="stop-color:rgb(236,118,146);stop-opacity:1"/></linearGradient>
        <linearGradient id="_Linear25" x1="0" y1="0" x2="1" y2="0" gradientUnits="userSpaceOnUse" gradientTransform="matrix(311.423,0,0,157.992,251.326,131.976)"><stop offset="0" style="stop-color:rgb(248,53,96);stop-opacity:1"/><stop offset="1" style="stop-color:rgb(236,118,146);stop-opacity:1"/></linearGradient>
        <linearGradient id="_Linear26" x1="0" y1="0" x2="1" y2="0" gradientUnits="userSpaceOnUse" gradientTransform="matrix(311.423,0,0,157.992,251.326,131.976)"><stop offset="0" style="stop-color:rgb(248,53,96);stop-opacity:1"/><stop offset="1" style="stop-color:rgb(236,118,146);stop-opacity:1"/></linearGradient>
        <linearGradient id="_Linear27" x1="0" y1="0" x2="1" y2="0" gradientUnits="userSpaceOnUse" gradientTransform="matrix(311.423,0,0,157.992,251.326,131.976)"><stop offset="0" style="stop-color:rgb(248,53,96);stop-opacity:1"/><stop offset="1" style="stop-color:rgb(236,118,146);stop-opacity:1"/></linearGradient>
    </defs>
</svg>
