<svg xmlns="http://www.w3.org/2000/svg" xml:space="preserve" fill-rule="evenodd" stroke-linejoin="round" stroke-miterlimit="2" clip-rule="evenodd" viewBox="0 0 248 276">
  <g filter="url(#a)">
    <path fill-opacity=".32" fill-rule="nonzero" d="m87.72 162.03-64.91 42.3L121 276l57.62-5.93 65-42.3-100.84-65.74H87.73Z"/>
  </g>
  <g filter="url(#b)">
    <path fill-opacity=".62" fill-rule="nonzero" d="m23.64 204.33 52.3-42.3h54.4l119.37 64.62-48.6 28.1-58.1 14.2-119.37-64.62Z"/>
  </g>
  <path fill="#f73a63" fill-rule="nonzero" d="M23.64 201.43v5.7l10.28 5.74 3.3-1.9.8.5 4.4 2.5 8.6 5 .3.7 2.1 4.5 4.8 2.8 4.3 2.5 4.4 2.5 8.6 5 4.4 2.5 12.9 7.5 4.4 2.5 1 .6 4.3 2.5 4.4 2.5 12.9 7.5 4.4 2.5 8.6 5 3.9-2.3 4.3-2.5 4.4-2.5 12.9-7.5 4.4-2.5 8.6-5 4.4-2.5 8.6-5 4.4-2.5 12.9-7.5 4.4-2.5v-104l-1-.6-4.4-2.5-8.6-5-4.4-2.5-8.6-5-4.4-2.5-4.3-2.5-1-.6-4.3-2.5-4.4-2.5-8.6-5-4.4-2.5-12.9-7.5-1.1-.6-12.9-7.5-4.4-2.5-8.6-5-4.4-2.5-4.3-2.5-2.28-1.14-3.8 2.2-4.3 2.5-4.4 2.5-8.6 5-4.4 2.5-8.6 5-4.4 2.5-12.9 7.5-4.4 2.5-8.6 5-4.4 2.5-4.3 2.5v98.4"/>
  <path fill-rule="nonzero" d="m99.02 148.87 1.8 1.1.3.2v89.3l-2.2 2.7v-88.3l.1-5m-69.2 49.6-2.2 2.7v-93.4l1.8 1.1.3.2m35.8 20.5v89.4l-2.2 2.7v-93.3l1.8 1.1.4.1m-35.7-20.6v89.4M94.5 68.4l2.66-3.25-1.7 1L65 83.65l-2.15 1.25-1.35.8-30.45 17.5 2.65.2m.26-.05L37 101.6l26.1-15 2.15-1.25 3.35-1.95 26.1-15m73.76 37.9-2.65 3.25-3.35 1.95-26.1 15-2.15 1.25-3.05 1.75-26.1 15-2.65-.2 1.35-.8L134.2 126l2.15-1.25 1.7-1 26.1-15 4.3-2.45M130.16 89l-3.35 1.95-26.1 15-2.15 1.25-3.05 1.75-26.1 15-2.65-.2 1.35-.8 30.45-17.5 2.15-1.25 1.7-1 30.45-17.5-2.7 3.3" opacity=".3"/>
  <path fill="#fff" d="m28 200.8 3.8 2.2 8.7 5 .9.5 1.45.85 17.4 10v-4L57.9 214l-13.05-7.5-.9-.5-.75-.4-13.05-7.5-2.15 2.7m37.8 17.85 3.95 2.3 26.1 15v4l-1.8-1.05-30.45-17.5m63.85 32.85-26.1-15L99.2 242l30.45 17.5 1.8 1.05v-4" opacity=".2"/>
  <path fill-rule="nonzero" d="m36.32 210.47-2.4 2.4 3.3-1.9-.9-.5Z"/>
  <path fill="#fff" fill-opacity=".3" fill-rule="nonzero" d="m206.02 123.77-73.1 42.2-109.28-62.94 73.1-42.2 109.28 62.94Zm-5.5 1.1L94.84 63.93l-65.8 38 105.68 60.84 65.8-37.9Z"/>
  <path fill="#fff" d="m100.06 141.64-1.55-.9-3.05-1.75-26.1-15 26.1-15 3.05-1.75 2.15-1.25 26.1-15 3.35-1.95 4.15 2.4 2.15 1.25 21.75 12.5 2.65 1.5-60.75 34.95Zm96.2-14.4-.05-.05-2.55-1.5-21.75-12.5-2.15-1.25-4.15-2.4-60.55 34.95 26.1 15 3.05 1.75 1.5.85.05.05 60.5-34.9Zm-71.3-41.15-2.65 1.5-21.75 12.5-2.15 1.25-1.4.8-2.15 1.25-3.95 2.3-26.1 15-.6.35-30.4-17.65 3.05-1.75 26.1-15 2.15-1.25 3.35-1.95 26.1-15 30.4 17.65Z" opacity=".3"/>
  <path fill="#fff" fill-opacity=".3" fill-rule="nonzero" d="m27.66 101.11 65.96-38.04 3.5 2.1-65.86 38.04-3.6-2.1Zm35.76 20.56 65.8-38 3.6 2-65.8 38-3.6-2Zm35.6 20.6 65.9-38 3.5 2-65.8 38-3.6-2Zm36.9 25.7 66.4-38.3.6.4-66.3 38.3-.7-.4Z"/>
  <path fill-opacity=".3" fill-rule="nonzero" d="M206.02 222.07v5.7l-68.8 40-3.9 2.2v-5.7m72.7-42.2v-98.4l-2 1.2-4.3 2.5-1.8 1.1-4 2.3-21.5 12.5-2.2 1.2-3.2 1.8-30.1 17.5-2.2 1.2-1.5.8v98.3m34.9-88.2-3-1.2v-21.4l3-1.7v24.3Zm0 36.2-3-1.6v-29.7l3-1.7v33Zm0 27.5-3-1.2v-21.3l3-1.7v24.2Zm33.2-19.2-3-1.2v-21.3l3-1.7v24.2Zm0-27.4-3-1.6v-29.7l3-1.7v33Zm0-36.3-3-1.2v-21.4l3-1.7v24.3Zm-65.4 11.3.6.2.2.1v90.7l-.7-.4v-90.6m66.9-37.9-66.3 38.3-.6-.4 66.3-38.3.6.4Zm-34.8 45.8-29.8 17.2v-2.9l26.9-15.5 2.9 1.2Zm0 36.2-29.8 17.3v-3.4l26.9-15.5 2.9 1.6Zm0 27.5-29.8 17.2v-2.9l26.9-15.5 2.9 1.2Zm33.2-82.9-29.8 17.2v-2.9l26.8-15.5 3 1.2Zm0 36.3-29.8 17.2v-3.4l26.9-15.5 2.9 1.7Zm0 27.4-29.8 17.2v-2.9l26.9-15.5 2.9 1.2Z"/>
  <path fill="#fff" fill-opacity=".3" fill-rule="nonzero" d="m138.32 190.17 26.8-15.5 3 1.2-29.8 17.2v-2.9Zm0 35.8 26.8-15.5 3 1.6-29.8 17.3v-3.4Zm0 27.9 26.8-15.5 3 1.2-29.8 17.2v-2.9Zm33.1-82.9 26.9-15.5 3 1.2-29.9 17.3v-3Zm0 35.9 26.9-15.6 3 1.7-29.9 17.2v-3.3Zm0 27.8 26.9-15.5 3 1.2-29.9 17.2v-2.9Z"/>
  <path fill="gray" fill-rule="nonzero" d="m181.72 147.27-.5-.2h-1.1l-.4.2-.3.3-.2.3v22l-.3-.2v-.1l-.4.3-.4.2v3.2l1.1.7v32.1l-.3-.2-.8.4v3.2l1.1.7v23.5l.2.4.2.1v.1h.1l.4.2.6.1.5-.1.5-.2.3-.2.1-.4v-85.8l-.1-.3-.3-.3Zm-17.5 10.1-.5-.1-.6-.1-1 .2-.3.3-.1.3v22l-.4-.2-.4.2-.3.3v3.1l1.1.7v32.1l-.3-.2h-.1l-.4.2-.3.2v3.3l1.1.7v23.5l.1.3.2.2h.1v.1l1 .2.6-.1.5-.1.3-.3.1-.3v-85.9l-.1-.3-.3-.3Z"/>
  <path fill="#fff" fill-opacity=".3" fill-rule="nonzero" d="m179.22 147.87.1.3.3.3.5.2.6.1.6-.1.5-.2.3-.3.1-.3-.1-.3-.3-.3-.5-.2-.6-.1-.6.1-.5.2-.3.3-.1.3Zm-17.5 10.1.1-.3.3-.3.5-.2.6-.1.6.1.5.2.3.3.1.3-.1.3-.3.3-.5.2-.6.1-.6-.1-.5-.2-.3-.3-.1-.3Zm-1.1 22.3.8.5.4.2v-.9l-.4-.2-.8.4m17.5 26 .8-.4.3.2v.9l-.4-.2-.7-.5m0-36.2 1.2.6v-.9l-.4-.2-.8.5Zm-16.4 47v-.9l-.3-.2-.8.4"/>
  <g filter="url(#c)">
    <path fill-opacity=".62" fill-rule="nonzero" d="m85.24 79.9 37.79-46 25.23 48.2c17.03 16.84 32.13 32.96 25.91 41.08l-4.19 19.22-22.52 12.99-32.63-11.37-18.9 6.24c-22.58-13.5-16.38-6.47-18.8-1.4L65.4 122.5l-10.66-19.88 30.5-22.72Z"/>
  </g>
  <path fill="#fff" d="M118.72 10.1c3.34 3.03 2.24-.17 10.88 10.3 1.53 1.13 1.92 2.8 2.72 4.53.22.47.88.88 1.12 1.4.29.62-.11 1.44.32 1.91 1.58 1.74 5.85 6.77 6.4 8.55.33 1.09-.01 2.08.47 3.14.4.86 1.81 1.98 2.24 2.45.6.65 1.88 4.09 2.24 4.88.53 1.15-.03 2.56.48 3.66a15.88 15.88 0 0 0 2.72 3.84c1 1.08 1.95 4.58 3.04 5.76 1.23 1.34 1.53 7.9 3.35 8.9l1.76 5.05c2.54 4.29 3.7 11.87 5.5 15.92 14.23 1.44 11.65 15.6 11.76 20.54-1.29 4.76-7.74 13.42-13.3 16.9 5.53 18.94-11.46 23.6-23.4 17.72-8.25 1.62-20.44-4.29-21.14-5.93-2.68 2.02-13.62 7.44-23.55.1l-4.78-2.38c-10.15 11.38-17.76-5.17-21.3-12.93-5.45-11.97-5.55-17.93 1.63-27.89 2.31-1.24 1.16-4.14 2.6-5.7.2-.23 1.31-1.12 1.41-1.44.3-1 .96-2.44 1.6-3.14.23-.24.07-.77.33-1.05 1.7-1.84 2.57-4.6 4.5-6.7 1.15-1.26 3.72-2.8 4.45-4.38.8-1.7-.16-4.02.67-5.82 1-2.19.65-5.07 1.6-7.15.2-.41-.18-1.15 0-1.56.9-1.96 1.87-4.67 2.57-6.98a17.5 17.5 0 0 1 1.38-2.96c.76-.82 3.2-7.25 3.43-7.37 1.5-.81 2.72-5.33 4.02-6.74.35-.39.2-1.1.48-1.4 1.36-1.48 4.92-6.15 5.77-6.62l16.03-17.41Z"/>
  <path fill="url(#d)" d="M135.71 107.91c-10.73-6.92-19.48-16.28-4.35-28 8.67-6.71 12.26-13.11 12.12-20.1-.13-6.17.34 1.22.34 1.22 4.23 12.64-3 24.88-7.9 36-1.38 3.14-1.57 8.15-.3 10.37 0 0 7.14 5.06.1.51Z"/>
  <path fill="url(#e)" d="M92.33 139.72c.3.23.62.44.93.65 9.67 6.36 20.02 1.21 22.62-.75l.17-1.56c4.29.23 7.9-5.8 3.67-8.83-8.51-6.11-16.73-7.44-25.62-13.02-11.96-7.52-11.27-17.03-6.36-26.99 4.02-9.65 10.65-11.89 16.67-15.85 1.66-3.37 4.35-5.98 5.97-9.48 6.26-13.51 1.71-28.92 5.93-42.81 1.74-3.66 5.09-7.32 1.61-10.98-8.22 9.29-15.19 16.85-15.43 33.09-.35 23.77-23.4 25.06-32.55 49.03-7.84 20.56 7.92 24.65 26.75 32.8 16.45 7.12 7.82 18.5-3.15 15.17l-1.21-.47Z"/>
  <path fill="url(#f)" d="M173.72 110.93c-1.29 4.77-7.74 13.42-13.3 16.9 0 0 6.16 15.1-.16.2-1.32-3.12-3.6-6.38-7.03-9.64-2.55-2.42-10.38-5.9-17.4-10.4l-.22-.59c-1.25-2.22-1.07-7.23.31-10.37 4.9-11.12 12.13-23.36 7.9-36l-.36.18c.34-6.56-2.76-13.6-8.16-21.9-3.84-8.04-10.85-13.91-13.54-22.59l-2.88-5.75c11.53 9 20.95 22.83 25.2 34.92 4.76 13.52 15.1 23.46 12.42 42.11-1.86 12.93 15.53 31.15 17.58 21.84.34-1.55-.36 1.09-.36 1.09Z"/>
  <path fill="url(#g)" d="M156.37 90.62c-.03-.89 0-1.77.13-2.62.8-5.63.43-10.47-.62-14.86l.58 1.33c2.53 4.28 3.7 11.87 5.5 15.92 0 0 1.9.03.08-.08-2.39-.14-4.9-.05-5.35.2l-.32.11Z"/>
  <path fill="url(#h)" d="M91.7 122.9c1.63.68 3.3 1.38 4.99 2.11 21.62 9.36-.07 26.1-13.47 7.1l.49-.88c2.67-2.65 6.45-4.27 7.85-7.32l.14-1Z"/>
  <path fill="url(#i)" d="M137.2 127.45c-.04-8-52.45-22.21-18.28-43.36 25.87-16 3.1-44.65 1.72-65.97l-1.12-3.49c-7.06 15.11 6.91 31.83.35 46.78-6.87 15.67-34.83 12.5-32.18 33.52 2.2 17.56 25.5 19.83 38.1 24.41 8.21 3.7 11.4 8.11 11.4 8.11Z"/>
  <path fill="url(#j)" d="M158.62 98.91c.84-.39 2.79-2.71 4.02-4.06.24-.72.06-1.47-.32-1.88l4.06-1.93c-1.74-.9-8.88-.97-9.7-.53-.13 2.97.57 5.76 1.94 8.4Z"/>
  <path fill="url(#k)" d="M158.62 98.91c.84-.39 2.79-2.71 4.02-4.06.24-.72.06-1.47-.32-1.88l-.27.16c4.06-5.49 9.65.15 11.61 9.62 3.58 17.24-9.53 8.38-15-3.48l-.04-.36Z"/>
  <path fill="url(#l)" d="M119.52 14.63c-7.07 15.1 6.9 31.82.35 46.78-6.87 15.67-34.83 12.5-32.19 33.52 2.21 17.56 25.51 19.83 38.1 24.41 25.51 9.29 13.3 41.1-10.53 19.42l.63.86.17-1.56c4.29.23 7.9-5.8 3.67-8.83-8.51-6.11-16.73-7.44-25.62-13.02-11.96-7.52-11.27-17.03-6.36-26.99 4.02-9.65 10.65-11.89 16.67-15.85 1.66-3.37 4.35-5.98 5.97-9.48 6.26-13.51 1.71-28.92 5.93-42.81 1.74-3.66 2.93-7.15 2.93-7.15l.28.7Z"/>
  <path fill="url(#m)" d="M91.42 122.79c-15.15-6.35-26.76-11.2-22.73-26.7.32-1.22-.81.43-.81.43-7.18 9.95-7.08 15.92-1.63 27.89 3.54 7.76 11.15 24.3 21.3 12.92l-.27-.7c-1.4-1.2-2.77-2.7-4.06-4.53l.48-.87c2.67-2.65 6.46-4.28 7.86-7.32l-.14-1.12Z"/>
  <path fill="url(#n)" d="M83.66 72.91c9.18-8.56 18.61-14.59 18.83-29.72.14-9.27 2.47-15.71 5.97-21.26l-.48-.34a90.18 90.18 0 0 0-24.7 50.54s-4.85 5.67.38.78Z"/>
  <path fill="url(#o)" d="M135.97 144.06c4.57-3.28 5.55-10.63 1.18-16.91l.04.3c-.03-8-52.44-22.21-18.27-43.36 25.86-16 3.09-44.65 1.71-65.97l1.13-1.8c2.7 8.68 9.7 14.55 13.54 22.58 10.7 16.45 12.4 27.96-3.94 40.62-25.05 19.4 15.39 32.33 21.87 38.48 19.83 18.8.94 37.94-16.21 27.36l-1.05-1.3Z"/>
  <path fill="url(#p)" d="M117.8 9.1a.9.9 0 0 0-.54.3c-3.3 3.74-6.44 7.27-9.04 11.21a.84.84 0 0 0-.3-.03 1 1 0 0 0-.55.28A91.24 91.24 0 0 0 82.4 72c-.06.24-.03.51.08.74-5.08 4.81-10.1 10.52-13.38 19.1a38.26 38.26 0 0 0-1.19 3.69h-.14a.9.9 0 0 0-.6.37c-3.64 5.05-5.52 9.27-5.73 13.77.15 2.02 1.84 2.47 1.82.1.15-3.38 1.35-6.63 3.88-10.54-.27 2.13-.21 4.07.14 5.85.72 3.66 2.72 6.58 5.48 8.98 5.54 4.8 14.22 7.8 23.6 11.86 5.27 2.28 7.71 4.97 8.38 7.13.66 2.15-.18 3.98-2.13 5.3-3.89 2.63-12.17 2.35-18.65-6.83a.9.9 0 0 0-1.27-.2 1.1 1.1 0 0 0-.17 1.4c6.91 9.81 16.16 10.64 21.05 7.32 2.45-1.66 3.83-4.59 2.9-7.6-.93-3.03-3.91-5.94-9.45-8.34-9.45-4.09-18.03-7.2-23.12-11.61-2.55-2.21-4.22-4.69-4.84-7.84-.61-3.14-.17-7.02 1.74-12.04 4.48-11.73 12.32-17.92 19.3-24.24 6.99-6.32 13.12-12.93 13.3-25.17.23-15.59 6.68-22.8 14.66-31.82a1 1 0 0 0 .32.4c11.36 8.86 20.7 22.58 24.88 34.45 2.43 6.91 6.21 12.8 9.01 19.21s4.66 13.3 3.35 22.41c-.58 4.08.58 8.48 2.51 12.46a33.47 33.47 0 0 0 7.33 9.96 14.27 14.27 0 0 0 3.96 2.65c1.27.53 2.55.67 3.65.07 1.1-.6 1.78-1.92 2.01-3.64.17-1.28-1.51-2.02-1.78-.27-.18 1.33-.59 1.9-1.05 2.15-.46.26-1.2.26-2.2-.15a12.67 12.67 0 0 1-3.43-2.35 31.7 31.7 0 0 1-6.87-9.35c-1.82-3.73-2.84-7.76-2.34-11.22 1.37-9.54-.6-16.98-3.5-23.58-2.88-6.6-6.65-12.44-8.98-19.05-4.33-12.32-13.8-26.26-25.5-35.38a.86.86 0 0 0-.6-.19c-.05-.52-.54-.93-1.02-.86Zm1.58 4.53a.94.94 0 0 0-.68.55c-3.7 7.92-1.87 16.2-.07 24.14 1.79 7.94 3.55 15.57.43 22.68-3.22 7.34-11.65 10.42-19.23 14.25-3.8 1.91-7.38 4.02-9.9 7.11-2.5 3.09-3.84 7.21-3.15 12.7a19.02 19.02 0 0 0 5.4 11.16c2.81 2.88 6.43 5 10.33 6.7 7.8 3.39 16.8 5.1 22.98 7.35 12.42 4.53 15.28 14.2 12.72 19.96-1.28 2.88-3.9 4.88-7.7 4.95-3.8.08-8.84-1.88-14.69-7.2a.9.9 0 0 0-1.29.14c-.3.4-.24 1.08.13 1.4 6.07 5.53 11.51 7.72 15.9 7.63 2.15-.04 4.03-.64 5.58-1.65-.1.41.09.89.43 1.1 8.9 5.5 18.42 3.37 23.13-2.87a15.08 15.08 0 0 0 2.67-11.83c-.8-4.54-3.47-9.44-8.54-14.25-1.85-1.76-5.57-3.64-9.87-6.02-4.3-2.37-9.13-5.16-12.93-8.3-3.81-3.14-6.52-6.6-6.85-10.18-.32-3.59 1.59-7.7 7.72-12.44 8.28-6.42 12.17-12.74 12.47-19.62.3-6.86-2.92-14.01-8.28-22.26l-.05-.1c-3.97-8.24-10.86-14.05-13.43-22.33-.13-.44-.57-.74-1-.67-.5.09-.87.75-.7 1.29 2.81 9.03 9.88 14.96 13.6 22.73l.05.12c5.3 8.16 8.26 14.98 8 21.12-.27 6.15-3.69 11.88-11.74 18.11-6.4 4.96-8.83 9.75-8.42 14.23.41 4.49 3.54 8.28 7.52 11.57 3.99 3.28 8.9 6.1 13.22 8.49 4.32 2.38 8.12 4.42 9.5 5.74 4.85 4.6 7.25 9.13 7.95 13.14.7 4-.27 7.5-2.3 10.2-4.08 5.39-12.57 7.5-20.81 2.41a.86.86 0 0 0-.34-.12 10.34 10.34 0 0 0 2.69-3.67c3.13-7.05-.68-17.93-13.77-22.7-6.41-2.33-15.32-4.04-22.87-7.32-3.77-1.64-7.19-3.67-9.76-6.3a16.84 16.84 0 0 1-4.86-10c-.63-5.02.52-8.37 2.73-11.08 2.2-2.72 5.57-4.77 9.29-6.65 7.45-3.76 16.43-6.88 20.09-15.2 3.44-7.86 1.5-16.08-.3-24.02-1.79-7.93-3.42-15.55-.06-22.74.32-.64-.27-1.56-.93-1.45Zm-14.13 12.31c-2.18 4.7-3.57 10.17-3.67 17.23-.17 11.54-5.73 17.43-12.65 23.68l-4.56 4.13a89.28 89.28 0 0 1 20.88-45.04Z"/>
  <path fill="url(#q)" d="M119.09 8.2a.9.9 0 0 0-.54.3c-3.3 3.74-6.45 7.27-9.04 11.21a.84.84 0 0 0-.31-.03c-.2.03-.4.13-.54.28A91.24 91.24 0 0 0 83.67 71.1c-.06.24-.03.52.09.74-5.09 4.81-10.11 10.52-13.38 19.1a38.26 38.26 0 0 0-1.2 3.69h-.13a.9.9 0 0 0-.6.37c-3.64 5.05-5.53 9.27-5.73 13.77.14 2.02 1.84 2.47 1.81.1.15-3.38 1.35-6.63 3.89-10.54-.27 2.13-.21 4.07.14 5.85.71 3.66 2.71 6.58 5.48 8.98 5.54 4.8 14.22 7.8 23.6 11.86 5.27 2.28 7.71 4.97 8.37 7.13.67 2.15-.18 3.98-2.12 5.3-3.9 2.63-12.18 2.35-18.65-6.83a.9.9 0 0 0-1.28-.2 1.1 1.1 0 0 0-.17 1.4c6.92 9.81 16.16 10.64 21.06 7.32 2.45-1.66 3.82-4.59 2.9-7.6-.94-3.03-3.92-5.94-9.46-8.34-9.44-4.09-18.02-7.2-23.12-11.61-2.54-2.21-4.21-4.69-4.83-7.84-.62-3.14-.18-7.02 1.74-12.04 4.47-11.73 12.31-17.92 19.3-24.24 6.98-6.32 13.12-12.93 13.3-25.17.23-15.59 6.68-22.8 14.66-31.82a1 1 0 0 0 .31.4c11.37 8.86 20.7 22.58 24.88 34.45 2.43 6.91 6.22 12.8 9.02 19.21s4.66 13.3 3.35 22.41c-.59 4.08.57 8.48 2.5 12.46a33.5 33.5 0 0 0 7.33 9.96 14.27 14.27 0 0 0 3.96 2.65c1.28.53 2.56.67 3.65.07 1.1-.6 1.79-1.92 2.02-3.64.16-1.28-1.52-2.02-1.79-.27-.17 1.33-.58 1.9-1.05 2.15-.46.26-1.2.26-2.2-.15-1-.41-2.2-1.24-3.43-2.35a31.7 31.7 0 0 1-6.87-9.35c-1.81-3.73-2.83-7.76-2.34-11.22 1.37-9.54-.6-16.98-3.49-23.58-2.89-6.6-6.66-12.44-8.98-19.05-4.33-12.32-13.8-26.26-25.5-35.38a.86.86 0 0 0-.6-.19c-.06-.52-.55-.93-1.02-.86Zm1.58 4.53a.94.94 0 0 0-.68.55c-3.7 7.92-1.87 16.2-.08 24.14 1.8 7.94 3.55 15.57.44 22.68-3.22 7.34-11.65 10.42-19.24 14.25-3.8 1.91-7.38 4.02-9.89 7.11-2.5 3.09-3.84 7.21-3.15 12.7a19.02 19.02 0 0 0 5.4 11.16c2.81 2.88 6.42 5 10.33 6.7 7.8 3.39 16.8 5.1 22.98 7.35 12.41 4.53 15.28 14.2 12.72 19.96-1.28 2.88-3.9 4.88-7.7 4.95-3.8.08-8.85-1.88-14.7-7.2a.9.9 0 0 0-1.28.14c-.3.4-.24 1.08.13 1.4 6.07 5.53 11.5 7.72 15.9 7.64 2.14-.04 4.03-.65 5.58-1.66-.1.41.08.9.42 1.1 8.9 5.5 18.43 3.37 23.13-2.87a15.09 15.09 0 0 0 2.68-11.83c-.8-4.54-3.47-9.44-8.54-14.25-1.86-1.75-5.58-3.64-9.88-6.02-4.3-2.37-9.12-5.16-12.93-8.3-3.8-3.14-6.51-6.6-6.84-10.18-.33-3.58 1.58-7.7 7.71-12.44 8.29-6.42 12.18-12.73 12.47-19.62.3-6.86-2.92-14.01-8.27-22.26-.02-.03-.05-.06-.06-.1-3.97-8.24-10.85-14.05-13.43-22.32-.12-.44-.57-.75-.99-.68-.51.09-.88.75-.7 1.29 2.8 9.04 9.88 14.96 13.6 22.73l.05.12c5.3 8.16 8.26 14.98 8 21.12-.27 6.15-3.7 11.88-11.74 18.11-6.4 4.96-8.84 9.75-8.42 14.23.4 4.49 3.53 8.28 7.52 11.57 3.98 3.28 8.89 6.1 13.21 8.49 4.32 2.38 8.12 4.42 9.5 5.74 4.85 4.6 7.25 9.14 7.95 13.14.7 4-.27 7.5-2.3 10.2-4.07 5.39-12.56 7.5-20.81 2.41a.86.86 0 0 0-.34-.12 10.34 10.34 0 0 0 2.7-3.67c3.12-7.04-.69-17.93-13.78-22.7-6.4-2.33-15.32-4.04-22.86-7.32-3.78-1.64-7.2-3.67-9.76-6.3a16.84 16.84 0 0 1-4.87-10c-.63-5.02.53-8.37 2.73-11.08 2.2-2.72 5.57-4.77 9.3-6.65 7.44-3.76 16.43-6.88 20.08-15.2 3.44-7.86 1.5-16.08-.3-24.02-1.78-7.93-3.42-15.55-.06-22.74.33-.64-.27-1.56-.93-1.45Zm-14.14 12.31c-2.18 4.7-3.56 10.17-3.67 17.23-.17 11.54-5.73 17.43-12.64 23.69-1.48 1.33-3.02 2.71-4.56 4.12a89.28 89.28 0 0 1 20.87-45.04Z"/>
  <path fill="url(#r)" d="M119.92 9.59c-.2.03-.4.14-.54.3-3.3 3.74-6.44 7.27-9.04 11.22a.84.84 0 0 0-.3-.03c-.2.02-.4.12-.55.27A91.24 91.24 0 0 0 84.51 72.5c-.06.25-.03.52.08.74-5.08 4.81-10.1 10.53-13.38 19.1a38.35 38.35 0 0 0-1.19 3.7.17.17 0 0 0-.14 0 .9.9 0 0 0-.6.36c-3.64 5.05-5.52 9.27-5.72 13.77.14 2.02 1.83 2.47 1.8.1.16-3.38 1.36-6.63 3.9-10.54-.28 2.13-.22 4.07.13 5.86.72 3.65 2.72 6.57 5.49 8.97 5.53 4.8 14.21 7.8 23.6 11.86 5.27 2.28 7.7 4.97 8.37 7.13.66 2.15-.18 3.98-2.13 5.3-3.89 2.63-12.17 2.35-18.65-6.83a.9.9 0 0 0-1.27-.19 1.1 1.1 0 0 0-.17 1.39c6.92 9.81 16.16 10.64 21.05 7.32 2.45-1.66 3.83-4.59 2.9-7.6-.93-3.03-3.91-5.94-9.45-8.34-9.45-4.08-18.03-7.2-23.12-11.61-2.55-2.2-4.22-4.69-4.83-7.83-.62-3.15-.18-7.03 1.73-12.05 4.48-11.72 12.32-17.92 19.3-24.24 6.99-6.32 13.12-12.93 13.3-25.17.23-15.58 6.69-22.8 14.67-31.82a1 1 0 0 0 .3.4c11.37 8.86 20.71 22.58 24.89 34.46 2.43 6.9 6.21 12.8 9.01 19.2 2.8 6.41 4.66 13.3 3.35 22.42-.58 4.08.58 8.47 2.51 12.45a33.47 33.47 0 0 0 7.33 9.96 14.25 14.25 0 0 0 3.96 2.66c1.28.52 2.55.66 3.65.06 1.1-.6 1.78-1.92 2.01-3.63.17-1.29-1.51-2.02-1.78-.28-.18 1.33-.59 1.9-1.05 2.15-.46.26-1.2.26-2.2-.15a12.67 12.67 0 0 1-3.43-2.35 31.71 31.71 0 0 1-6.87-9.34c-1.82-3.74-2.84-7.77-2.34-11.22 1.37-9.55-.6-16.98-3.5-23.59-2.88-6.6-6.65-12.44-8.98-19.05-4.33-12.32-13.8-26.26-25.5-35.38a.87.87 0 0 0-.6-.19c-.05-.51-.54-.93-1.02-.86Zm1.58 4.53a.93.93 0 0 0-.68.55c-3.7 7.92-1.87 16.2-.07 24.14 1.79 7.94 3.55 15.58.43 22.68-3.22 7.34-11.65 10.43-19.23 14.25-3.8 1.92-7.38 4.02-9.9 7.11-2.5 3.1-3.83 7.21-3.14 12.7a19.01 19.01 0 0 0 5.4 11.16c2.8 2.88 6.42 5 10.32 6.7 7.8 3.39 16.8 5.1 22.98 7.36 12.42 4.52 15.28 14.19 12.72 19.95-1.28 2.88-3.9 4.88-7.7 4.95-3.8.08-8.84-1.87-14.69-7.2a.9.9 0 0 0-1.28.15c-.3.4-.25 1.07.12 1.4 6.07 5.52 11.51 7.71 15.9 7.63 2.15-.04 4.03-.65 5.58-1.66-.1.41.09.9.43 1.1 8.9 5.5 18.42 3.37 23.13-2.86a15.1 15.1 0 0 0 2.67-11.84c-.8-4.54-3.47-9.44-8.54-14.25-1.85-1.75-5.57-3.64-9.87-6.02-4.3-2.37-9.13-5.16-12.93-8.3-3.81-3.14-6.52-6.6-6.85-10.18-.32-3.58 1.59-7.7 7.71-12.44 8.3-6.42 12.18-12.73 12.48-19.62.3-6.86-2.92-14.01-8.28-22.26l-.05-.1c-3.97-8.24-10.86-14.05-13.43-22.32-.13-.44-.57-.75-1-.68-.5.09-.87.75-.7 1.3 2.81 9.03 9.88 14.95 13.6 22.72l.05.12c5.3 8.16 8.26 14.98 8 21.12-.27 6.15-3.69 11.88-11.74 18.11-6.4 4.96-8.83 9.75-8.42 14.23.41 4.5 3.54 8.28 7.52 11.57 3.98 3.29 8.9 6.1 13.21 8.49 4.33 2.38 8.12 4.43 9.51 5.74 4.85 4.6 7.24 9.14 7.95 13.14.7 4-.27 7.5-2.3 10.2-4.08 5.39-12.57 7.5-20.82 2.41a.87.87 0 0 0-.34-.12 10.34 10.34 0 0 0 2.7-3.67c3.13-7.04-.68-17.93-13.77-22.7-6.41-2.33-15.32-4.04-22.87-7.32-3.77-1.64-7.19-3.67-9.76-6.3a16.84 16.84 0 0 1-4.86-10c-.63-5.02.52-8.36 2.73-11.08 2.2-2.72 5.56-4.77 9.29-6.65 7.45-3.76 16.43-6.88 20.08-15.2 3.45-7.86 1.5-16.08-.29-24.01-1.79-7.94-3.42-15.56-.06-22.75.32-.64-.27-1.56-.94-1.45Zm-14.13 12.31c-2.18 4.7-3.57 10.18-3.67 17.23-.17 11.54-5.73 17.43-12.65 23.69l-4.56 4.12a89.27 89.27 0 0 1 20.88-45.04Z"/>
  <path fill="url(#s)" fill-rule="nonzero" d="M268.92 127.09c2.77-20.52 9.28-40.23 12.86-60.6.33-2.27.82-4.55.82-7 0-3.09-.49-5.2-4.07-5.2l-1.14.16h-.65c-9.94 0-21.34 63.68-22.48 72.31-1.63 11.24-2.93 22.64-2.93 33.88 0 3.59.16 13.36 5.7 13.36 5.2 0 6.02-9.61 6.84-13.2 2.28-10.58 6.51-21 10.75-30.94 7-16.29 32.25-67.27 44.14-67.27 5.05 0 5.7 12.87 5.7 16.29 0 14-1.47 33.06-4.89 46.74-22.8 18.57-55.7 49.03-55.7 70.7 0 8.95 5.54 14.65 14.33 14.65 27.37 0 51.15-51.96 56.03-77.2a152 152 0 0 1 1.63-7.33c8.14-5.54 14.33-8.15 14.33-10.26 0-1.96-1.63-3.1-3.42-3.1-2.28 0-6.02 1.63-9.12 3.42 1.63-8.47 2.77-16.94 2.77-25.57 0-8.5-1-23.21-7.2-31.6-2.84-3.84-6.77-6.35-12.18-6.35-24.6 0-46.26 55.05-52.12 74.11Zm12.21 72.48c-4.72 0-7.16-2.93-7.16-8.3 0-16.46 22.8-38.45 43.16-54.9-5.86 23.62-18.9 63.2-36 63.2Z"/>
  <path fill="#eec9d4" d="M277.1 98.82c5.62-12.41 12.87-25.7 21.06-35.08 7.05-8.08 14.88-13.26 22.88-13.26 6.3 0 10.88 2.9 14.18 7.36 6.51 8.8 7.7 24.18 7.7 33.1 0 7.12-.76 14.13-1.93 21.13 2.18-.9 4.27-1.49 5.78-1.49 3.17 0 5.92 2.15 5.92 5.6 0 1.16-.68 2.62-2.5 4.06-2.26 1.78-6.72 4.12-12.13 7.73-.53 2.19-.95 4.18-1.38 6.28-2.98 15.43-12.89 40.63-26.35 58.33-9.36 12.3-20.51 20.9-32.13 20.9-5.16 0-9.34-1.75-12.25-4.73-2.9-2.97-4.58-7.21-4.58-12.44 0-9.1 5.38-19.74 13.55-30.41 11.6-15.14 28.71-30.48 42.42-41.69 3.24-13.43 4.62-31.78 4.62-45.33 0-1.92-.2-7.02-1.4-10.79a9.43 9.43 0 0 0-.98-2.23c-.24-.38-.43-.77-.82-.77-1 0-2.08.63-3.3 1.55-2.5 1.87-5.25 5-8.15 8.9-11.83 15.86-25.54 44-30.4 55.3-4.17 9.8-8.35 20.06-10.6 30.5v.02c-.52 2.26-1.07 6.8-2.59 10.08-1.4 3.04-3.63 5.06-6.7 5.06-3.3 0-5.48-2.12-6.72-5.26-1.36-3.45-1.47-8.24-1.47-10.6 0-11.35 1.3-22.87 2.95-34.2.92-7 8.53-49.62 16.66-66.4 1.38-2.82 2.8-4.97 4.18-6.26a6.04 6.04 0 0 1 4.12-1.83h.47l.96-.14.36-.03c2.3 0 3.76.7 4.74 1.67 1.3 1.3 1.83 3.38 1.83 6.04 0 2.57-.5 4.97-.84 7.36l-.01.08c-1.9 10.74-4.6 21.3-7.14 31.9Zm-8.18 28.27c2.77-20.52 9.28-40.23 12.86-60.6.33-2.27.82-4.55.82-7 0-3.09-.49-5.2-4.07-5.2l-1.14.16h-.65c-9.94 0-21.34 63.68-22.48 72.31-1.63 11.24-2.93 22.64-2.93 33.88 0 3.59.16 13.36 5.7 13.36 5.2 0 6.02-9.61 6.84-13.2 2.28-10.58 6.51-21 10.75-30.94 7-16.29 32.25-67.27 44.14-67.27 5.05 0 5.7 12.87 5.7 16.29 0 14-1.47 33.06-4.89 46.74-22.8 18.57-55.7 49.03-55.7 70.7 0 8.95 5.54 14.65 14.33 14.65 27.37 0 51.15-51.96 56.03-77.2a152 152 0 0 1 1.63-7.33c8.14-5.54 14.33-8.15 14.33-10.26 0-1.96-1.63-3.1-3.42-3.1-2.28 0-6.02 1.63-9.12 3.42 1.63-8.47 2.77-16.94 2.77-25.57 0-8.5-1-23.21-7.2-31.6-2.84-3.84-6.77-6.35-12.18-6.35-24.6 0-46.26 55.05-52.12 74.11Z"/>
  <defs>
    <linearGradient id="d" x1="0" x2="1" y1="0" y2=".04" gradientTransform="matrix(-31.1896 135.956 -124.882 -33.9555 158.67 7.43)" gradientUnits="userSpaceOnUse">
      <stop offset="0" stop-color="#34414e" stop-opacity=".36"/>
      <stop offset=".18" stop-color="#3f5c5f" stop-opacity="0"/>
      <stop offset=".34" stop-color="#40575d" stop-opacity=".33"/>
      <stop offset=".72" stop-color="#3c5965" stop-opacity="0"/>
      <stop offset="1" stop-color="#536c70" stop-opacity=".64"/>
    </linearGradient>
    <linearGradient id="e" x1="0" x2="1" y1="0" y2=".02" gradientTransform="matrix(-11.7092 131.789 -121.054 -12.7476 118.63 11.92)" gradientUnits="userSpaceOnUse">
      <stop offset="0" stop-color="#2a3d49" stop-opacity=".08"/>
      <stop offset=".09" stop-color="#7a9ab1" stop-opacity="0"/>
      <stop offset=".39" stop-color="#2f4c54" stop-opacity=".22"/>
      <stop offset=".77" stop-color="#77adb4" stop-opacity="0"/>
      <stop offset="1" stop-color="#304e56" stop-opacity=".58"/>
    </linearGradient>
    <linearGradient id="f" x1="0" x2="1" y1="0" y2="-.07" gradientTransform="matrix(50.8097 117.552 -107.977 55.3156 122.25 13.9)" gradientUnits="userSpaceOnUse">
      <stop offset="0" stop-color="#2a3d49" stop-opacity="0"/>
      <stop offset=".2" stop-color="#7a9ab1" stop-opacity=".29"/>
      <stop offset=".52" stop-color="#2f4c54" stop-opacity=".04"/>
      <stop offset=".69" stop-color="#77adb4" stop-opacity="0"/>
      <stop offset="1" stop-color="#304e56" stop-opacity=".58"/>
    </linearGradient>
    <linearGradient id="g" x1="0" x2="1" y1="0" y2="-.07" gradientTransform="matrix(26.8538 59.3985 -54.56 29.2352 150.48 56.97)" gradientUnits="userSpaceOnUse">
      <stop offset="0" stop-color="#34414e" stop-opacity=".36"/>
      <stop offset=".18" stop-color="#3f5c5f" stop-opacity="0"/>
      <stop offset=".37" stop-color="#40575d" stop-opacity=".33"/>
      <stop offset=".72" stop-color="#3c5965" stop-opacity="0"/>
      <stop offset="1" stop-color="#536c70" stop-opacity=".64"/>
    </linearGradient>
    <linearGradient id="h" x1="0" x2="1" y1="0" y2="-.08" gradientTransform="matrix(39.272 50.6831 -46.5546 42.7547 90.45 125.8)" gradientUnits="userSpaceOnUse">
      <stop offset="0" stop-color="#34414e" stop-opacity=".36"/>
      <stop offset=".18" stop-color="#3f5c5f" stop-opacity="0"/>
      <stop offset=".52" stop-color="#40575d" stop-opacity=".19"/>
      <stop offset=".77" stop-color="#3c5965" stop-opacity="0"/>
      <stop offset="1" stop-color="#536c70" stop-opacity=".64"/>
    </linearGradient>
    <linearGradient id="i" x1="0" x2="1" y1="0" y2="-.01" gradientTransform="matrix(4.3245 132.505 -121.712 4.708 118.63 11.92)" gradientUnits="userSpaceOnUse">
      <stop offset="0" stop-color="#34414e" stop-opacity=".36"/>
      <stop offset=".18" stop-color="#3f5c5f" stop-opacity="0"/>
      <stop offset=".52" stop-color="#40575d" stop-opacity=".19"/>
      <stop offset=".77" stop-color="#3c5965" stop-opacity="0"/>
      <stop offset="1" stop-color="#536c70" stop-opacity=".64"/>
    </linearGradient>
    <linearGradient id="j" x1="0" x2="1" y1="0" y2=".02" gradientTransform="matrix(77.1896 -8.659 7.9536 84.0349 140.57 95.28)" gradientUnits="userSpaceOnUse">
      <stop offset="0" stop-color="#2a3d49" stop-opacity="0"/>
      <stop offset=".2" stop-color="#7a9ab1" stop-opacity=".29"/>
      <stop offset=".26" stop-color="#2f4c54" stop-opacity=".04"/>
      <stop offset=".69" stop-color="#77adb4" stop-opacity="0"/>
      <stop offset="1" stop-color="#304e56" stop-opacity=".58"/>
    </linearGradient>
    <linearGradient id="k" x1="0" x2="1" y1="0" y2="-.06" gradientTransform="matrix(28.6513 75.8605 -69.6811 31.1922 150.48 56.97)" gradientUnits="userSpaceOnUse">
      <stop offset="0" stop-color="#34414e" stop-opacity=".36"/>
      <stop offset=".18" stop-color="#3f5c5f" stop-opacity="0"/>
      <stop offset=".46" stop-color="#40575d" stop-opacity=".33"/>
      <stop offset=".72" stop-color="#3c5965" stop-opacity="0"/>
      <stop offset="1" stop-color="#536c70" stop-opacity=".64"/>
    </linearGradient>
    <linearGradient id="l" x1="0" x2="1" y1="0" y2="-.01" gradientTransform="matrix(10.3596 172.257 -158.225 11.2783 118.63 11.92)" gradientUnits="userSpaceOnUse">
      <stop offset="0" stop-color="#2a3d49" stop-opacity=".08"/>
      <stop offset=".46" stop-color="#7a9ab1" stop-opacity="0"/>
      <stop offset=".64" stop-color="#2f4c54" stop-opacity=".22"/>
      <stop offset=".77" stop-color="#77adb4" stop-opacity="0"/>
      <stop offset="1" stop-color="#304e56" stop-opacity=".58"/>
    </linearGradient>
    <linearGradient id="m" x1="0" x2="1" y1="0" y2="-.03" gradientTransform="matrix(24.061 146.371 -134.448 26.1947 69.2 83.37)" gradientUnits="userSpaceOnUse">
      <stop offset="0" stop-color="#2a3d49" stop-opacity=".08"/>
      <stop offset=".22" stop-color="#7a9ab1" stop-opacity="0"/>
      <stop offset=".39" stop-color="#2f4c54" stop-opacity=".43"/>
      <stop offset=".77" stop-color="#77adb4" stop-opacity="0"/>
      <stop offset="1" stop-color="#304e56" stop-opacity=".58"/>
    </linearGradient>
    <linearGradient id="n" x1="0" x2="1" y1="0" y2=".04" gradientTransform="matrix(-21.2768 91.3524 -83.9111 -23.1637 108.65 28.18)" gradientUnits="userSpaceOnUse">
      <stop offset="0" stop-color="#2a3d49" stop-opacity=".16"/>
      <stop offset=".46" stop-color="#7a9ab1" stop-opacity="0"/>
      <stop offset=".62" stop-color="#2f4c54" stop-opacity=".22"/>
      <stop offset=".77" stop-color="#77adb4" stop-opacity="0"/>
      <stop offset="1" stop-color="#304e56" stop-opacity=".58"/>
    </linearGradient>
    <linearGradient id="o" x1="0" x2="1" y1="0" y2="-.04" gradientTransform="matrix(27.2433 132.815 -121.996 29.6593 121.8 16.36)" gradientUnits="userSpaceOnUse">
      <stop offset="0" stop-color="#2a3d49" stop-opacity=".08"/>
      <stop offset=".34" stop-color="#7a9ab1" stop-opacity="0"/>
      <stop offset=".67" stop-color="#2f4c54" stop-opacity=".22"/>
      <stop offset=".83" stop-color="#4b8188" stop-opacity=".22"/>
      <stop offset="1" stop-color="#304e56" stop-opacity=".06"/>
    </linearGradient>
    <linearGradient id="p" x1="0" x2="1" y1="0" y2="-.01" gradientTransform="matrix(7.5141 110.465 -101.467 8.1805 119.16 29.11)" gradientUnits="userSpaceOnUse">
      <stop offset="0" stop-color="#f9325e"/>
      <stop offset="1" stop-color="#f9325e" stop-opacity="0"/>
    </linearGradient>
    <linearGradient id="q" x1="0" x2="1" y1="0" y2="-.01" gradientTransform="matrix(7.5141 110.465 -101.467 8.1805 120.46 28.2)" gradientUnits="userSpaceOnUse">
      <stop offset="0" stop-color="#f9325e"/>
      <stop offset="1" stop-color="#f9325e" stop-opacity="0"/>
    </linearGradient>
    <linearGradient id="r" x1="0" x2="1" y1="0" y2="-.01" gradientTransform="matrix(7.5141 110.465 -101.467 8.1805 121.22 29.6)" gradientUnits="userSpaceOnUse">
      <stop offset="0" stop-color="#f9325e"/>
      <stop offset="1" stop-color="#f9325e" stop-opacity="0"/>
    </linearGradient>
    <linearGradient id="s" x1="0" x2="1" y1="0" y2="0" gradientTransform="matrix(311.423 0 0 157.992 251.33 131.98)" gradientUnits="userSpaceOnUse">
      <stop offset="0" stop-color="#f83560"/>
      <stop offset="1" stop-color="#ec7692"/>
    </linearGradient>
    <filter id="a" width="277.2" height="170.33" x="-5.38" y="133.85" filterUnits="userSpaceOnUse">
      <feGaussianBlur in="SourceGraphic" stdDeviation="4.7"/>
    </filter>
    <filter id="b" width="293.16" height="174.01" x="-9.91" y="128.49" filterUnits="userSpaceOnUse">
      <feGaussianBlur in="SourceGraphic" stdDeviation="5.59"/>
    </filter>
    <filter id="c" width="224.94" height="231.83" x=".35" y="-9.53" filterUnits="userSpaceOnUse">
      <feGaussianBlur in="SourceGraphic" stdDeviation="5.59"/>
    </filter>
  </defs>
</svg>
