<?xml version="1.0" encoding="UTF-8" standalone="no"?>
<!DOCTYPE svg PUBLIC "-//W3C//DTD SVG 1.1//EN" "http://www.w3.org/Graphics/SVG/1.1/DTD/svg11.dtd">
<svg width="100%" height="100%" viewBox="0 0 248 276" version="1.1" xmlns="http://www.w3.org/2000/svg" xmlns:xlink="http://www.w3.org/1999/xlink" xml:space="preserve" xmlns:serif="http://www.serif.com/" style="fill-rule:evenodd;clip-rule:evenodd;stroke-linejoin:round;stroke-miterlimit:2;">
    <g id="Container">
        <g style="filter:url(#_Effect1);">
            <path id="polygon4487" d="M87.725,162.034l-64.917,42.3l98.2,71.666l57.623,-5.927l65.007,-42.3l-100.853,-65.739l-55.06,0Z" style="fill-opacity:0.32;fill-rule:nonzero;"/>
        </g>
        <g style="filter:url(#_Effect2);">
            <path id="polygon4489" d="M23.638,204.334l52.3,-42.3l54.4,0l119.371,64.617l-48.6,28.1l-58.1,14.2l-119.371,-64.617Z" style="fill-opacity:0.62;fill-rule:nonzero;"/>
        </g>
        <g id="g4493">
            <path id="polyline4491" d="M23.638,201.434l-0,5.7l10.285,5.739l3.3,-1.9l0.8,0.5l4.4,2.5l8.6,5l0.3,0.7l2.1,4.5l4.8,2.8l4.3,2.5l4.4,2.5l8.6,5l4.4,2.5l12.9,7.5l4.4,2.5l1,0.6l4.3,2.5l4.4,2.5l12.9,7.5l4.4,2.5l8.6,5l3.9,-2.3l4.3,-2.5l4.4,-2.5l12.9,-7.5l4.4,-2.5l8.6,-5l4.4,-2.5l8.6,-5l4.4,-2.5l12.9,-7.5l4.4,-2.5l-0,-104l-1,-0.6l-4.4,-2.5l-8.6,-5l-4.4,-2.5l-8.6,-5l-4.4,-2.5l-4.3,-2.5l-1,-0.6l-4.3,-2.5l-4.4,-2.5l-8.6,-5l-4.4,-2.5l-12.9,-7.5l-1.1,-0.6l-12.9,-7.5l-4.4,-2.5l-8.6,-5l-4.4,-2.5l-4.3,-2.5l-2.285,-1.139l-3.8,2.2l-4.3,2.5l-4.4,2.5l-8.6,5l-4.4,2.5l-8.6,5l-4.4,2.5l-12.9,7.5l-4.4,2.5l-8.6,5l-4.4,2.5l-4.3,2.5l-0,98.4" style="fill:rgb(247,58,99);fill-rule:nonzero;"/>
        </g>
        <g id="g4506" opacity="0.3">
            <path id="path6" d="M99.023,148.873l1.8,1.1l0.3,0.2l-0,89.3l-2.2,2.7l-0,-88.3l0.1,-5" style="fill-rule:nonzero;"/>
            <path id="path12_5_" d="M29.823,198.473l-2.2,2.7l-0,-93.4l1.8,1.1l0.3,0.2" style="fill-rule:nonzero;"/>
            <path id="path16_4_" d="M65.523,129.573l-0,89.4l-2.2,2.7l-0,-93.3l1.8,1.1l0.4,0.1" style="fill-rule:nonzero;"/>
            <path id="path40" d="M29.823,108.973l-0,89.4" style="fill-rule:nonzero;"/>
        </g>
        <g id="RenderLayer_LineSet" opacity="0.3">
            <g id="strokes">
                <path id="path54_3_" d="M94.509,68.401l2.65,-3.25l-1.7,1l-30.45,17.5l-2.15,1.25l-1.35,0.8l-30.45,17.5l2.65,0.2" style="fill-rule:nonzero;"/>
                <path id="path112" d="M33.959,103.351l3.05,-1.75l26.1,-15l2.15,-1.25l3.35,-1.95l26.1,-15" style="fill-rule:nonzero;"/>
                <path id="path114" d="M168.459,106.301l-2.65,3.25l-3.35,1.95l-26.1,15l-2.15,1.25l-3.05,1.75l-26.1,15l-2.65,-0.2l1.35,-0.8l30.45,-17.5l2.15,-1.25l1.7,-1l26.1,-15l4.3,-2.45" style="fill-rule:nonzero;"/>
                <path id="path118_2_" d="M130.159,89.001l-3.35,1.95l-26.1,15l-2.15,1.25l-3.05,1.75l-26.1,15l-2.65,-0.2l1.35,-0.8l30.45,-17.5l2.15,-1.25l1.7,-1l30.45,-17.5l-2.7,3.3" style="fill-rule:nonzero;"/>
            </g>
        </g>
        <g id="RenderLayer_LineSet_1_" opacity="0.2">
            <g>
                <path d="M28,200.803l3.8,2.2l8.7,5l0.9,0.5l1.45,0.85l17.4,10l0,-4l-2.35,-1.35l-13.05,-7.5l-0.9,-0.5l-0.75,-0.4l-13.05,-7.5l-2.15,2.7" style="fill:white;"/>
                <path d="M65.8,218.653l3.95,2.3l26.1,15l0,4l-1.8,-1.05l-30.45,-17.5" style="fill:white;"/>
                <path d="M127.45,254.253l-26.1,-15l-2.15,2.75l30.45,17.5l1.8,1.05l0,-4" style="fill:white;"/>
            </g>
        </g>
        <path id="polygon4541" d="M36.323,210.473l-2.4,2.4l3.3,-1.9l-0.9,-0.5Z" style="fill-rule:nonzero;"/>
        <path id="path4544" d="M206.023,123.773l-73.1,42.2l-109.285,-62.939l73.1,-42.2l109.285,62.939Zm-5.5,1.1l-105.685,-60.939l-65.8,38l105.685,60.839l65.8,-37.9Z" style="fill:white;fill-opacity:0.3;fill-rule:nonzero;"/>
        <g id="RenderLayer_LineSet_3_" opacity="0.3">
            <g>
                <path d="M100.06,141.636l-1.55,-0.9l-3.05,-1.75l-26.1,-15l26.1,-15l3.05,-1.75l2.15,-1.25l26.1,-15l3.35,-1.95l4.15,2.4l2.15,1.25l21.75,12.5l2.65,1.5l-60.75,34.95Z" style="fill:white;"/>
                <path d="M196.26,127.236l-0.05,-0.05l-2.55,-1.5l-21.75,-12.5l-2.15,-1.25l-4.15,-2.4l-60.55,34.95l26.1,15l3.05,1.75l1.5,0.85l0.05,0.05l60.5,-34.9Z" style="fill:white;"/>
                <path d="M124.96,86.086l-2.65,1.5l-21.75,12.5l-2.15,1.25l-1.4,0.8l-2.15,1.25l-3.95,2.3l-26.1,15l-0.6,0.35l-30.4,-17.65l3.05,-1.75l26.1,-15l2.15,-1.25l3.35,-1.95l26.1,-15l30.4,17.65Z" style="fill:white;"/>
            </g>
        </g>
        <path id="polygon4565" d="M27.663,101.115l65.96,-38.042l3.5,2.1l-65.86,38.042l-3.6,-2.1Z" style="fill:white;fill-opacity:0.3;fill-rule:nonzero;"/>
        <path id="polygon4567" d="M63.423,121.673l65.8,-38l3.6,2l-65.8,38l-3.6,-2Z" style="fill:white;fill-opacity:0.3;fill-rule:nonzero;"/>
        <path id="polygon4569" d="M99.023,142.273l65.9,-38l3.5,2l-65.8,38l-3.6,-2Z" style="fill:white;fill-opacity:0.3;fill-rule:nonzero;"/>
        <path id="polygon4571" d="M135.923,167.973l66.4,-38.3l0.6,0.4l-66.3,38.3l-0.7,-0.4Z" style="fill:white;fill-opacity:0.3;fill-rule:nonzero;"/>
        <path id="path4573" d="M206.023,222.073l-0,5.7l-68.8,40l-3.9,2.2l-0,-5.7m72.7,-42.2l-0,-98.4l-2,1.2l-4.3,2.5l-1.8,1.1l-4,2.3l-21.5,12.5l-2.2,1.2l-3.2,1.8l-30.1,17.5l-2.2,1.2l-1.5,0.8l-0,98.3m34.9,-88.2l-3,-1.2l-0,-21.4l3,-1.7l-0,24.3Zm-0,36.2l-3,-1.6l-0,-29.7l3,-1.7l-0,33Zm-0,27.5l-3,-1.2l-0,-21.3l3,-1.7l-0,24.2Zm33.2,-19.2l-3,-1.2l-0,-21.3l3,-1.7l-0,24.2Zm-0,-27.4l-3,-1.6l-0,-29.7l3,-1.7l-0,33Zm-0,-36.3l-3,-1.2l-0,-21.4l3,-1.7l-0,24.3Zm-65.4,11.3l0.6,0.2l0.2,0.1l-0,90.7l-0.7,-0.4l-0,-90.6m66.9,-37.9l-66.3,38.3l-0.6,-0.4l66.3,-38.3l0.6,0.4Zm-34.8,45.8l-29.8,17.2l-0,-2.9l26.9,-15.5l2.9,1.2Zm-0,36.2l-29.8,17.3l-0,-3.4l26.9,-15.5l2.9,1.6Zm-0,27.5l-29.8,17.2l-0,-2.9l26.9,-15.5l2.9,1.2Zm33.2,-82.9l-29.8,17.2l-0,-2.9l26.8,-15.5l3,1.2Zm-0,36.3l-29.8,17.2l-0,-3.4l26.9,-15.5l2.9,1.7Zm-0,27.4l-29.8,17.2l-0,-2.9l26.9,-15.5l2.9,1.2Z" style="fill-opacity:0.3;fill-rule:nonzero;"/>
        <path id="polygon4575" d="M138.323,190.173l26.8,-15.5l3,1.2l-29.8,17.2l-0,-2.9Z" style="fill:white;fill-opacity:0.3;fill-rule:nonzero;"/>
        <path id="polygon4577" d="M138.323,225.973l26.8,-15.5l3,1.6l-29.8,17.3l-0,-3.4Z" style="fill:white;fill-opacity:0.3;fill-rule:nonzero;"/>
        <path id="polygon4579" d="M138.323,253.873l26.8,-15.5l3,1.2l-29.8,17.2l-0,-2.9Z" style="fill:white;fill-opacity:0.3;fill-rule:nonzero;"/>
        <path id="polygon4581" d="M171.423,170.973l26.9,-15.5l3,1.2l-29.9,17.3l-0,-3Z" style="fill:white;fill-opacity:0.3;fill-rule:nonzero;"/>
        <path id="polygon4583" d="M171.423,206.873l26.9,-15.6l3,1.7l-29.9,17.2l-0,-3.3Z" style="fill:white;fill-opacity:0.3;fill-rule:nonzero;"/>
        <path id="polygon4585" d="M171.423,234.673l26.9,-15.5l3,1.2l-29.9,17.2l-0,-2.9Z" style="fill:white;fill-opacity:0.3;fill-rule:nonzero;"/>
        <path id="polygon4587" d="M181.723,147.273l-0.5,-0.2l-1.1,0l-0.4,0.2l-0.3,0.3l-0.2,0.3l-0,22l-0.3,-0.2l-0,-0.1l-0.4,0.3l-0.4,0.2l-0,3.2l1.1,0.7l-0,32.1l-0.3,-0.2l-0.8,0.4l-0,3.2l1.1,0.7l-0,23.5l0.2,0.4l0.2,0.1l-0,0.1l0.1,0l0.4,0.2l0.6,0.1l0.5,-0.1l0.5,-0.2l0.3,-0.2l0.1,-0.4l-0,-85.8l-0.1,-0.3l-0.3,-0.3Z" style="fill:rgb(128,128,128);fill-rule:nonzero;"/>
        <path id="polygon4589" d="M164.223,157.373l-0.5,-0.1l-0.6,-0.1l-1,0.2l-0.3,0.3l-0.1,0.3l-0,22l-0.4,-0.2l-0.4,0.2l-0.3,0.3l-0,3.1l1.1,0.7l-0,32.1l-0.3,-0.2l-0.1,0l-0.4,0.2l-0.3,0.2l-0,3.3l1.1,0.7l-0,23.5l0.1,0.3l0.2,0.2l0.1,0l-0,0.1l1,0.2l0.6,-0.1l0.5,-0.1l0.3,-0.3l0.1,-0.3l-0,-85.9l-0.1,-0.3l-0.3,-0.3Z" style="fill:rgb(128,128,128);fill-rule:nonzero;"/>
        <path id="path2_3_" d="M179.223,147.873l0.1,0.3l0.3,0.3l0.5,0.2l0.6,0.1l0.6,-0.1l0.5,-0.2l0.3,-0.3l0.1,-0.3l-0.1,-0.3l-0.3,-0.3l-0.5,-0.2l-0.6,-0.1l-0.6,0.1l-0.5,0.2l-0.3,0.3l-0.1,0.3Z" style="fill:white;fill-opacity:0.3;fill-rule:nonzero;"/>
        <path id="path68_1_" d="M161.723,157.973l0.1,-0.3l0.3,-0.3l0.5,-0.2l0.6,-0.1l0.6,0.1l0.5,0.2l0.3,0.3l0.1,0.3l-0.1,0.3l-0.3,0.3l-0.5,0.2l-0.6,0.1l-0.6,-0.1l-0.5,-0.2l-0.3,-0.3l-0.1,-0.3Z" style="fill:white;fill-opacity:0.3;fill-rule:nonzero;"/>
        <path id="path160" d="M160.623,180.273l0.8,0.5l0.4,0.2l-0,-0.9l-0.4,-0.2l-0.8,0.4" style="fill:white;fill-opacity:0.3;fill-rule:nonzero;"/>
        <path id="path162" d="M178.123,206.273l0.8,-0.4l0.3,0.2l-0,0.9l-0.4,-0.2l-0.7,-0.5" style="fill:white;fill-opacity:0.3;fill-rule:nonzero;"/>
        <path id="path164" d="M178.123,170.073l1.2,0.6l-0,-0.9l-0.4,-0.2l-0.8,0.5Z" style="fill:white;fill-opacity:0.3;fill-rule:nonzero;"/>
        <path id="path182" d="M161.723,217.073l-0,-0.9l-0.3,-0.2l-0.8,0.4" style="fill:white;fill-opacity:0.3;fill-rule:nonzero;"/>
    </g>
    <g style="filter:url(#_Effect3);">
        <path id="Cone-Shadow" serif:id="Cone Shadow" d="M85.243,79.899l37.785,-46.002l25.233,48.194c17.031,16.845 32.127,32.964 25.911,41.093l-4.191,19.211l-22.526,12.994l-32.625,-11.369l-18.898,6.235c-22.583,-13.502 -16.377,-6.466 -18.804,-1.391l-11.723,-26.369l-10.666,-19.879l30.504,-22.717Z" style="fill-opacity:0.62;fill-rule:nonzero;"/>
    </g>
    <g id="Ice">
        <path d="M118.72,10.096c3.344,3.035 2.241,-0.165 10.882,10.298c1.527,1.139 1.921,2.797 2.719,4.536c0.214,0.467 0.883,0.88 1.119,1.396c0.288,0.628 -0.114,1.446 0.319,1.918c1.586,1.731 5.854,6.766 6.398,8.55c0.331,1.082 -0.01,2.08 0.478,3.139c0.391,0.853 1.809,1.973 2.24,2.443c0.598,0.651 1.875,4.093 2.238,4.884c0.528,1.151 -0.029,2.556 0.477,3.662c0.636,1.388 1.727,2.755 2.719,3.838c0.992,1.082 1.955,4.576 3.038,5.757c1.23,1.341 1.53,7.899 3.356,8.895l1.757,5.058c2.536,4.285 3.706,11.872 5.507,15.918c14.218,1.446 11.643,15.603 11.757,20.537c-1.294,4.769 -7.743,13.422 -13.307,16.898c5.529,18.944 -11.456,23.61 -23.39,17.726c-8.257,1.617 -20.449,-4.284 -21.144,-5.931c-2.684,2.026 -13.625,7.443 -23.554,0.1l-4.775,-2.382c-10.157,11.386 -17.767,-5.163 -21.3,-12.921c-5.452,-11.972 -5.55,-17.939 1.626,-27.895c2.311,-1.241 1.16,-4.143 2.593,-5.7c0.207,-0.225 1.318,-1.124 1.417,-1.444c0.307,-1.002 0.956,-2.433 1.604,-3.137c0.222,-0.241 0.066,-0.769 0.321,-1.046c1.699,-1.846 2.57,-4.608 4.498,-6.703c1.161,-1.261 3.731,-2.792 4.46,-4.375c0.788,-1.712 -0.165,-4.02 0.665,-5.823c1.008,-2.19 0.652,-5.071 1.608,-7.147c0.192,-0.418 -0.191,-1.151 -0,-1.569c0.901,-1.958 1.861,-4.669 2.568,-6.971c0.161,-0.524 1.055,-2.61 1.379,-2.963c0.757,-0.822 3.205,-7.25 3.426,-7.37c1.503,-0.816 2.722,-5.336 4.018,-6.745c0.355,-0.385 0.208,-1.097 0.481,-1.394c1.36,-1.478 4.918,-6.156 5.772,-6.619l16.03,-17.418Z" style="fill:white;"/>
        <path d="M135.713,107.911c-10.733,-6.926 -19.479,-16.279 -4.356,-27.994c8.677,-6.722 12.267,-13.12 12.122,-20.108c-0.13,-6.167 0.339,1.225 0.339,1.225c4.23,12.636 -2.998,24.877 -7.895,35.994c-1.383,3.139 -1.568,8.153 -0.312,10.375c-0,-0 7.148,5.056 0.102,0.509l-0,-0.001Z" style="fill:url(#_Linear4);"/>
        <path d="M92.328,139.719c0.309,0.228 0.618,0.444 0.928,0.648c9.673,6.362 20.026,1.215 22.626,-0.748l0.165,-1.554c4.291,0.221 7.906,-5.8 3.676,-8.835c-8.514,-6.11 -16.73,-7.436 -25.619,-13.018c-11.968,-7.517 -11.278,-17.028 -6.36,-26.992c4.017,-9.651 10.648,-11.885 16.669,-15.849c1.656,-3.366 4.344,-5.98 5.968,-9.482c6.263,-13.51 1.713,-28.918 5.928,-42.81c1.74,-3.66 5.089,-7.318 1.611,-10.983c-8.22,9.293 -15.187,16.852 -15.427,33.09c-0.351,23.774 -23.398,25.063 -32.549,49.039c-7.847,20.559 7.913,24.648 26.742,32.795c16.451,7.117 7.822,18.509 -3.144,15.173l-1.214,-0.474Z" style="fill:url(#_Linear5);"/>
        <path d="M173.724,110.928c-1.294,4.768 -7.743,13.421 -13.307,16.897c0,0 6.165,15.113 -0.158,0.206c-1.323,-3.118 -3.595,-6.381 -7.026,-9.636c-2.555,-2.423 -10.384,-5.899 -17.4,-10.408l-0.221,-0.586c-1.256,-2.221 -1.07,-7.235 0.313,-10.374c4.897,-11.118 12.125,-23.357 7.895,-35.995l-0.362,0.182c0.347,-6.567 -2.759,-13.611 -8.157,-21.913c-3.838,-8.031 -10.846,-13.904 -13.543,-22.576l-2.877,-5.756c11.533,8.992 20.95,22.828 25.203,34.925c4.754,13.521 15.098,23.453 12.418,42.109c-1.857,12.924 15.53,31.145 17.576,21.836c0.34,-1.549 -0.353,1.088 -0.353,1.088l-0.001,0.001Z" style="fill:url(#_Linear6);"/>
        <path d="M156.372,90.62c-0.035,-0.89 0,-1.767 0.126,-2.62c0.81,-5.635 0.431,-10.474 -0.623,-14.856l0.582,1.324c2.535,4.286 3.706,11.872 5.507,15.918c0,0 1.901,0.033 0.08,-0.072c-2.394,-0.139 -4.895,-0.054 -5.357,0.196l-0.315,0.11Z" style="fill:url(#_Linear7);"/>
        <path d="M91.7,122.902c1.628,0.682 3.296,1.381 4.988,2.113c21.617,9.353 -0.07,26.087 -13.464,7.086l0.481,-0.872c2.672,-2.648 6.453,-4.272 7.854,-7.314l0.141,-1.013Z" style="fill:url(#_Linear8);"/>
        <path d="M137.198,127.452c-0.037,-7.995 -52.448,-22.216 -18.276,-43.365c25.864,-16.006 3.094,-44.647 1.716,-65.968l-1.119,-3.488c-7.063,15.109 6.912,31.825 0.351,46.784c-6.871,15.664 -34.83,12.488 -32.184,33.514c2.21,17.562 25.509,19.829 38.1,24.414c8.217,3.691 11.412,8.11 11.412,8.11l-0,-0.001Z" style="fill:url(#_Linear9);"/>
        <path d="M158.622,98.911c0.838,-0.388 2.786,-2.714 4.017,-4.063c0.243,-0.716 0.061,-1.465 -0.321,-1.882l4.06,-1.923c-1.741,-0.901 -8.875,-0.975 -9.689,-0.533c-0.139,2.97 0.563,5.758 1.934,8.401l-0.001,0Z" style="fill:url(#_Linear10);"/>
        <path d="M158.622,98.911c0.838,-0.388 2.786,-2.714 4.017,-4.063c0.243,-0.716 0.061,-1.465 -0.321,-1.882l-0.27,0.163c4.061,-5.487 9.652,0.154 11.615,9.623c3.574,17.234 -9.536,8.378 -15.008,-3.484l-0.033,-0.357Z" style="fill:url(#_Linear11);"/>
        <path d="M119.516,14.63c-7.063,15.108 6.912,31.825 0.351,46.784c-6.871,15.664 -34.83,12.488 -32.184,33.514c2.21,17.562 25.509,19.829 38.1,24.414c25.508,9.288 13.295,41.099 -10.538,19.42l0.636,0.857l0.165,-1.554c4.291,0.221 7.906,-5.8 3.675,-8.835c-8.513,-6.11 -16.73,-7.436 -25.618,-13.018c-11.968,-7.517 -11.278,-17.027 -6.361,-26.992c4.018,-9.651 10.648,-11.885 16.669,-15.849c1.656,-3.366 4.345,-5.98 5.969,-9.482c6.262,-13.51 1.713,-28.918 5.927,-42.81c1.741,-3.66 2.929,-7.145 2.929,-7.145l0.28,0.696Z" style="fill:url(#_Linear12);"/>
        <path d="M91.425,122.786c-15.15,-6.343 -26.769,-11.201 -22.737,-26.69c0.318,-1.224 -0.81,0.419 -0.81,0.419c-7.176,9.956 -7.077,15.923 -1.625,27.894c3.533,7.759 11.143,24.307 21.3,12.922l-0.274,-0.697c-1.399,-1.206 -2.767,-2.705 -4.057,-4.536l0.481,-0.871c2.672,-2.649 6.453,-4.273 7.853,-7.315l-0.131,-1.126Z" style="fill:url(#_Linear13);"/>
        <path d="M83.663,72.912c9.181,-8.567 18.607,-14.589 18.83,-29.726c0.137,-9.269 2.465,-15.71 5.967,-21.259l-0.479,-0.334c-15.944,16.327 -22.795,35.88 -24.706,50.535c-0,0 -4.849,5.671 0.389,0.784l-0.001,-0Z" style="fill:url(#_Linear14);"/>
        <path d="M135.973,144.06c4.566,-3.276 5.549,-10.63 1.181,-16.914l0.039,0.307c-0.037,-7.995 -52.448,-22.216 -18.276,-43.365c25.863,-16.006 3.093,-44.647 1.715,-65.968l1.123,-1.792c2.697,8.672 9.704,14.545 13.542,22.576c10.697,16.451 12.394,27.96 -3.942,40.615c-25.05,19.406 15.391,32.33 21.874,38.478c19.835,18.812 0.942,37.946 -16.212,27.365l-1.044,-1.302Z" style="fill:url(#_Linear15);"/>
        <path d="M117.802,9.096c-0.205,0.032 -0.398,0.143 -0.538,0.308c-3.304,3.735 -6.446,7.263 -9.041,11.21c-0.101,-0.03 -0.207,-0.04 -0.311,-0.031c-0.201,0.024 -0.394,0.123 -0.538,0.277c-16.112,16.501 -23.048,36.277 -24.986,51.137c-0.061,0.246 -0.03,0.518 0.085,0.74c-5.086,4.816 -10.109,10.527 -13.379,19.096c-0.49,1.281 -0.875,2.521 -1.193,3.697c-0.047,-0.009 -0.094,-0.009 -0.141,-0c-0.232,0.033 -0.45,0.168 -0.595,0.369c-3.644,5.055 -5.527,9.27 -5.731,13.771c0.142,2.023 1.839,2.473 1.812,0.095c0.153,-3.378 1.351,-6.623 3.888,-10.537c-0.272,2.136 -0.214,4.072 0.136,5.856c0.719,3.657 2.717,6.573 5.485,8.975c5.535,4.803 14.218,7.8 23.6,11.859c5.27,2.28 7.71,4.974 8.374,7.128c0.664,2.155 -0.182,3.981 -2.128,5.299c-3.89,2.637 -12.175,2.355 -18.65,-6.83c-0.289,-0.412 -0.896,-0.501 -1.274,-0.187c-0.378,0.315 -0.46,0.975 -0.171,1.387c6.919,9.815 16.16,10.644 21.056,7.326c2.449,-1.659 3.825,-4.59 2.895,-7.61c-0.931,-3.019 -3.91,-5.935 -9.449,-8.331c-9.447,-4.087 -18.028,-7.194 -23.119,-11.612c-2.545,-2.209 -4.216,-4.686 -4.834,-7.834c-0.619,-3.147 -0.179,-7.028 1.737,-12.048c4.474,-11.723 12.315,-17.913 19.3,-24.237c6.985,-6.323 13.119,-12.933 13.299,-25.167c0.23,-15.588 6.684,-22.81 14.664,-31.822c0.068,0.161 0.179,0.3 0.311,0.401c11.365,8.861 20.707,22.575 24.884,34.452c2.429,6.909 6.212,12.804 9.014,19.211c2.802,6.407 4.658,13.3 3.35,22.41c-0.586,4.081 0.575,8.476 2.509,12.454c1.933,3.978 4.64,7.55 7.323,9.962c1.342,1.207 2.684,2.132 3.962,2.655c1.277,0.523 2.555,0.667 3.651,0.065c1.097,-0.601 1.784,-1.918 2.014,-3.635c0.164,-1.286 -1.513,-2.02 -1.784,-0.279c-0.178,1.333 -0.587,1.903 -1.049,2.156c-0.462,0.254 -1.205,0.255 -2.208,-0.156c-1.003,-0.41 -2.191,-1.238 -3.424,-2.346c-2.464,-2.216 -5.057,-5.612 -6.871,-9.345c-1.814,-3.733 -2.836,-7.765 -2.34,-11.222c1.371,-9.545 -0.602,-16.978 -3.49,-23.581c-2.888,-6.603 -6.661,-12.443 -8.986,-19.056c-4.331,-12.316 -13.804,-26.255 -25.505,-35.378c-0.171,-0.134 -0.385,-0.201 -0.595,-0.185c-0.054,-0.518 -0.544,-0.932 -1.018,-0.864l-0.001,-0.003Zm1.581,4.533c-0.291,0.049 -0.554,0.264 -0.68,0.554c-3.702,7.92 -1.869,16.189 -0.077,24.132c1.792,7.944 3.55,15.579 0.434,22.685c-3.219,7.339 -11.647,10.423 -19.235,14.251c-3.794,1.913 -7.38,4.02 -9.887,7.109c-2.507,3.089 -3.844,7.21 -3.153,12.695c0.581,4.618 2.584,8.284 5.397,11.162c2.813,2.878 6.427,5.004 10.328,6.699c7.801,3.39 16.802,5.109 22.981,7.358c12.418,4.522 15.28,14.194 12.722,19.954c-1.279,2.881 -3.901,4.881 -7.705,4.954c-3.803,0.074 -8.841,-1.879 -14.686,-7.196c-0.37,-0.331 -0.984,-0.265 -1.288,0.138c-0.304,0.403 -0.244,1.071 0.126,1.402c6.071,5.522 11.511,7.713 15.904,7.629c2.141,-0.041 4.029,-0.642 5.578,-1.658c-0.1,0.416 0.083,0.893 0.424,1.109c8.905,5.494 18.427,3.359 23.132,-2.873c2.353,-3.116 3.469,-7.287 2.671,-11.832c-0.797,-4.545 -3.467,-9.44 -8.537,-14.248c-1.854,-1.759 -5.573,-3.646 -9.875,-6.02c-4.302,-2.375 -9.124,-5.165 -12.931,-8.305c-3.806,-3.139 -6.513,-6.591 -6.842,-10.178c-0.329,-3.586 1.581,-7.695 7.711,-12.444c8.286,-6.418 12.176,-12.732 12.473,-19.62c0.296,-6.861 -2.92,-14.008 -8.275,-22.261c-0.02,-0.032 -0.044,-0.059 -0.056,-0.093c-3.97,-8.24 -10.854,-14.053 -13.428,-22.328c-0.128,-0.44 -0.57,-0.744 -0.99,-0.679c-0.518,0.093 -0.879,0.753 -0.709,1.294c2.81,9.035 9.884,14.959 13.598,22.728l0.056,0.124c5.304,8.156 8.258,14.977 7.994,21.12c-0.265,6.144 -3.686,11.875 -11.736,18.111c-6.395,4.954 -8.832,9.744 -8.421,14.23c0.412,4.487 3.538,8.28 7.521,11.566c3.983,3.285 8.892,6.104 13.214,8.489c4.321,2.385 8.119,4.426 9.507,5.742c4.848,4.598 7.242,9.135 7.944,13.138c0.702,4.003 -0.267,7.503 -2.302,10.199c-4.071,5.392 -12.561,7.502 -20.81,2.414c-0.104,-0.065 -0.22,-0.108 -0.34,-0.124c1.151,-0.987 2.063,-2.247 2.693,-3.665c3.13,-7.047 -0.677,-17.932 -13.767,-22.698c-6.412,-2.334 -15.32,-4.048 -22.868,-7.328c-3.774,-1.64 -7.191,-3.667 -9.762,-6.297c-2.57,-2.63 -4.337,-5.829 -4.86,-9.991c-0.633,-5.028 0.521,-8.374 2.727,-11.092c2.206,-2.718 5.568,-4.769 9.292,-6.647c7.447,-3.757 16.433,-6.88 20.085,-15.205c3.445,-7.855 1.498,-16.078 -0.291,-24.009c-1.79,-7.932 -3.426,-15.557 -0.066,-22.747c0.324,-0.642 -0.268,-1.561 -0.933,-1.449l-0.002,0.001Zm-14.137,12.313c-2.179,4.696 -3.563,10.173 -3.667,17.225c-0.17,11.541 -5.733,17.43 -12.647,23.688c-1.473,1.334 -3.014,2.719 -4.561,4.125c1.949,-13.215 7.898,-30.162 20.875,-45.039l-0,0.001Z" style="fill:url(#_Linear16);"/>
        <path d="M119.088,8.196c-0.205,0.032 -0.398,0.143 -0.538,0.308c-3.304,3.735 -6.446,7.263 -9.041,11.21c-0.101,-0.03 -0.207,-0.04 -0.311,-0.031c-0.201,0.024 -0.394,0.123 -0.538,0.277c-16.112,16.501 -23.048,36.277 -24.986,51.137c-0.061,0.246 -0.03,0.518 0.085,0.74c-5.086,4.816 -10.109,10.527 -13.379,19.096c-0.49,1.281 -0.875,2.521 -1.193,3.697c-0.047,-0.009 -0.094,-0.009 -0.141,-0c-0.232,0.032 -0.451,0.168 -0.595,0.369c-3.644,5.055 -5.528,9.27 -5.731,13.771c0.142,2.023 1.839,2.473 1.812,0.095c0.152,-3.378 1.351,-6.623 3.888,-10.537c-0.272,2.136 -0.214,4.072 0.136,5.856c0.718,3.657 2.717,6.573 5.485,8.975c5.535,4.803 14.218,7.8 23.6,11.859c5.27,2.28 7.71,4.974 8.374,7.128c0.664,2.155 -0.182,3.981 -2.128,5.299c-3.89,2.637 -12.175,2.355 -18.65,-6.83c-0.289,-0.412 -0.896,-0.501 -1.274,-0.186c-0.378,0.314 -0.46,0.975 -0.171,1.386c6.919,9.815 16.16,10.644 21.056,7.326c2.449,-1.658 3.825,-4.59 2.895,-7.609c-0.931,-3.02 -3.91,-5.935 -9.449,-8.332c-9.447,-4.087 -18.028,-7.194 -23.119,-11.612c-2.545,-2.209 -4.216,-4.686 -4.834,-7.833c-0.619,-3.148 -0.179,-7.028 1.737,-12.049c4.474,-11.723 12.315,-17.913 19.3,-24.236c6.984,-6.323 13.118,-12.934 13.299,-25.167c0.23,-15.588 6.684,-22.811 14.664,-31.823c0.068,0.161 0.179,0.3 0.311,0.401c11.365,8.861 20.707,22.575 24.883,34.453c2.429,6.908 6.212,12.803 9.014,19.21c2.803,6.407 4.658,13.301 3.35,22.41c-0.586,4.081 0.576,8.476 2.509,12.454c1.933,3.978 4.641,7.55 7.324,9.963c1.341,1.206 2.683,2.131 3.961,2.654c1.277,0.523 2.555,0.667 3.652,0.065c1.097,-0.601 1.783,-1.918 2.013,-3.635c0.164,-1.286 -1.513,-2.02 -1.783,-0.279c-0.179,1.333 -0.588,1.904 -1.05,2.157c-0.461,0.253 -1.205,0.254 -2.208,-0.157c-1.003,-0.41 -2.191,-1.238 -3.423,-2.346c-2.465,-2.216 -5.057,-5.612 -6.872,-9.345c-1.814,-3.733 -2.836,-7.765 -2.34,-11.222c1.371,-9.545 -0.602,-16.978 -3.49,-23.581c-2.888,-6.603 -6.661,-12.443 -8.986,-19.056c-4.33,-12.316 -13.804,-26.255 -25.505,-35.378c-0.17,-0.134 -0.385,-0.201 -0.594,-0.185c-0.055,-0.518 -0.544,-0.932 -1.019,-0.864l-0,-0.003Zm1.581,4.533c-0.291,0.049 -0.554,0.264 -0.68,0.554c-3.702,7.92 -1.869,16.189 -0.077,24.133c1.792,7.943 3.55,15.578 0.434,22.684c-3.219,7.339 -11.647,10.423 -19.236,14.251c-3.793,1.913 -7.379,4.02 -9.886,7.109c-2.507,3.089 -3.844,7.21 -3.153,12.695c0.581,4.618 2.584,8.285 5.397,11.163c2.813,2.878 6.427,5.004 10.328,6.699c7.801,3.39 16.802,5.109 22.981,7.358c12.418,4.522 15.28,14.193 12.722,19.954c-1.279,2.88 -3.901,4.881 -7.705,4.954c-3.803,0.074 -8.841,-1.879 -14.686,-7.196c-0.37,-0.331 -0.984,-0.266 -1.288,0.137c-0.304,0.404 -0.244,1.072 0.126,1.403c6.071,5.522 11.511,7.713 15.903,7.629c2.141,-0.041 4.03,-0.642 5.579,-1.659c-0.1,0.417 0.083,0.894 0.424,1.11c8.905,5.494 18.427,3.359 23.131,-2.873c2.353,-3.116 3.469,-7.287 2.672,-11.832c-0.798,-4.546 -3.468,-9.44 -8.538,-14.248c-1.854,-1.759 -5.573,-3.646 -9.875,-6.021c-4.302,-2.374 -9.125,-5.164 -12.93,-8.304c-3.807,-3.139 -6.514,-6.591 -6.843,-10.178c-0.329,-3.586 1.582,-7.695 7.711,-12.444c8.286,-6.419 12.177,-12.732 12.474,-19.62c0.296,-6.861 -2.92,-14.008 -8.276,-22.261c-0.019,-0.031 -0.044,-0.058 -0.056,-0.093c-3.971,-8.24 -10.855,-14.053 -13.428,-22.328c-0.128,-0.44 -0.57,-0.744 -0.99,-0.679c-0.518,0.093 -0.88,0.753 -0.709,1.294c2.81,9.035 9.885,14.958 13.597,22.728l0.057,0.124c5.304,8.156 8.258,14.977 7.993,21.12c-0.265,6.143 -3.686,11.874 -11.736,18.11c-6.395,4.955 -8.831,9.744 -8.42,14.231c0.411,4.487 3.537,8.28 7.52,11.566c3.984,3.285 8.892,6.104 13.214,8.489c4.321,2.384 8.12,4.426 9.508,5.742c4.847,4.598 7.241,9.135 7.943,13.138c0.703,4.003 -0.266,7.503 -2.302,10.199c-4.071,5.392 -12.56,7.502 -20.81,2.414c-0.104,-0.065 -0.22,-0.108 -0.339,-0.124c1.151,-0.987 2.063,-2.247 2.693,-3.665c3.129,-7.047 -0.678,-17.931 -13.768,-22.698c-6.412,-2.334 -15.32,-4.048 -22.868,-7.328c-3.774,-1.64 -7.191,-3.667 -9.761,-6.297c-2.571,-2.63 -4.337,-5.829 -4.861,-9.991c-0.633,-5.028 0.521,-8.374 2.727,-11.092c2.206,-2.718 5.568,-4.769 9.292,-6.648c7.448,-3.756 16.434,-6.88 20.085,-15.204c3.445,-7.855 1.499,-16.078 -0.291,-24.01c-1.789,-7.932 -3.425,-15.556 -0.066,-22.746c0.324,-0.642 -0.268,-1.562 -0.933,-1.449l0,-0Zm-14.138,12.314c-2.178,4.696 -3.563,10.171 -3.667,17.224c-0.169,11.541 -5.732,17.43 -12.646,23.689c-1.474,1.334 -3.014,2.718 -4.562,4.125c1.95,-13.215 7.899,-30.163 20.875,-45.038l0,-0Z" style="fill:url(#_Linear17);"/>
        <path d="M119.922,9.588c-0.205,0.032 -0.398,0.142 -0.538,0.308c-3.304,3.735 -6.446,7.263 -9.04,11.21c-0.101,-0.03 -0.207,-0.04 -0.312,-0.031c-0.201,0.024 -0.394,0.123 -0.538,0.277c-16.112,16.5 -23.047,36.277 -24.985,51.137c-0.062,0.246 -0.031,0.518 0.084,0.74c-5.086,4.816 -10.108,10.527 -13.379,19.095c-0.489,1.282 -0.875,2.522 -1.192,3.698c-0.048,-0.009 -0.095,-0.009 -0.142,-0c-0.232,0.033 -0.45,0.168 -0.595,0.369c-3.643,5.054 -5.527,9.27 -5.73,13.771c0.141,2.023 1.839,2.473 1.811,0.094c0.153,-3.378 1.351,-6.622 3.888,-10.536c-0.271,2.135 -0.214,4.072 0.137,5.856c0.718,3.656 2.717,6.573 5.484,8.975c5.535,4.803 14.218,7.8 23.601,11.859c5.269,2.28 7.709,4.974 8.373,7.129c0.665,2.154 -0.182,3.98 -2.127,5.299c-3.891,2.636 -12.175,2.355 -18.651,-6.831c-0.289,-0.412 -0.896,-0.5 -1.274,-0.186c-0.378,0.314 -0.46,0.975 -0.171,1.387c6.919,9.815 16.16,10.644 21.057,7.326c2.448,-1.659 3.825,-4.59 2.894,-7.61c-0.931,-3.02 -3.91,-5.935 -9.449,-8.331c-9.447,-4.087 -18.028,-7.194 -23.119,-11.613c-2.545,-2.208 -4.216,-4.686 -4.834,-7.833c-0.618,-3.147 -0.179,-7.028 1.737,-12.049c4.474,-11.722 12.316,-17.913 19.3,-24.236c6.985,-6.323 13.119,-12.934 13.299,-25.167c0.23,-15.587 6.684,-22.81 14.664,-31.823c0.068,0.161 0.179,0.3 0.311,0.402c11.366,8.861 20.708,22.575 24.884,34.452c2.429,6.909 6.212,12.804 9.014,19.211c2.803,6.407 4.658,13.3 3.35,22.41c-0.586,4.08 0.576,8.476 2.509,12.454c1.933,3.978 4.641,7.55 7.324,9.962c1.341,1.207 2.683,2.132 3.961,2.655c1.277,0.523 2.555,0.666 3.652,0.065c1.097,-0.602 1.783,-1.919 2.013,-3.635c0.164,-1.286 -1.513,-2.021 -1.783,-0.279c-0.179,1.333 -0.588,1.903 -1.05,2.156c-0.461,0.253 -1.205,0.254 -2.208,-0.156c-1.003,-0.411 -2.191,-1.238 -3.423,-2.346c-2.465,-2.216 -5.057,-5.613 -6.872,-9.346c-1.814,-3.733 -2.836,-7.764 -2.34,-11.221c1.371,-9.545 -0.602,-16.978 -3.49,-23.581c-2.888,-6.603 -6.661,-12.443 -8.986,-19.057c-4.33,-12.315 -13.804,-26.254 -25.505,-35.377c-0.17,-0.134 -0.385,-0.201 -0.594,-0.186c-0.056,-0.518 -0.544,-0.932 -1.019,-0.864l-0.001,-0.003Zm1.581,4.532c-0.291,0.049 -0.554,0.264 -0.679,0.554c-3.703,7.92 -1.87,16.19 -0.077,24.133c1.791,7.943 3.549,15.579 0.433,22.685c-3.219,7.339 -11.647,10.423 -19.234,14.25c-3.794,1.914 -7.38,4.021 -9.887,7.11c-2.507,3.089 -3.843,7.21 -3.153,12.694c0.581,4.619 2.584,8.285 5.397,11.163c2.813,2.878 6.427,5.003 10.328,6.698c7.801,3.39 16.803,5.11 22.981,7.359c12.418,4.522 15.281,14.193 12.722,19.954c-1.279,2.88 -3.901,4.881 -7.704,4.954c-3.804,0.074 -8.842,-1.879 -14.687,-7.196c-0.37,-0.331 -0.984,-0.266 -1.288,0.137c-0.304,0.404 -0.244,1.072 0.126,1.403c6.071,5.522 11.511,7.713 15.904,7.629c2.141,-0.041 4.03,-0.642 5.578,-1.659c-0.1,0.417 0.083,0.894 0.424,1.11c8.905,5.493 18.427,3.359 23.131,-2.873c2.353,-3.116 3.469,-7.288 2.672,-11.833c-0.798,-4.545 -3.468,-9.439 -8.538,-14.248c-1.854,-1.758 -5.573,-3.646 -9.875,-6.02c-4.302,-2.374 -9.124,-5.164 -12.93,-8.304c-3.807,-3.14 -6.514,-6.591 -6.843,-10.178c-0.328,-3.586 1.582,-7.695 7.711,-12.444c8.286,-6.419 12.177,-12.732 12.474,-19.62c0.296,-6.861 -2.92,-14.008 -8.276,-22.261c-0.019,-0.031 -0.044,-0.059 -0.056,-0.093c-3.971,-8.24 -10.854,-14.053 -13.428,-22.328c-0.128,-0.44 -0.57,-0.744 -0.99,-0.679c-0.518,0.093 -0.88,0.753 -0.709,1.294c2.81,9.035 9.885,14.958 13.597,22.728l0.057,0.124c5.304,8.156 8.258,14.977 7.993,21.12c-0.264,6.143 -3.686,11.874 -11.735,18.11c-6.395,4.955 -8.832,9.744 -8.421,14.231c0.411,4.487 3.537,8.28 7.521,11.566c3.983,3.285 8.892,6.104 13.213,8.489c4.321,2.384 8.12,4.426 9.508,5.742c4.847,4.597 7.241,9.135 7.943,13.138c0.703,4.002 -0.266,7.503 -2.301,10.199c-4.071,5.392 -12.561,7.502 -20.81,2.414c-0.105,-0.065 -0.221,-0.108 -0.34,-0.124c1.151,-0.987 2.063,-2.247 2.693,-3.665c3.129,-7.047 -0.677,-17.931 -13.767,-22.698c-6.412,-2.335 -15.32,-4.048 -22.868,-7.328c-3.775,-1.64 -7.192,-3.668 -9.762,-6.297c-2.571,-2.63 -4.337,-5.829 -4.861,-9.991c-0.633,-5.028 0.522,-8.374 2.728,-11.092c2.206,-2.719 5.567,-4.769 9.291,-6.648c7.448,-3.757 16.434,-6.88 20.085,-15.204c3.446,-7.855 1.499,-16.078 -0.29,-24.01c-1.79,-7.932 -3.426,-15.556 -0.066,-22.746c0.324,-0.642 -0.268,-1.562 -0.933,-1.45l-0.002,0.001Zm-14.137,12.314c-2.179,4.696 -3.563,10.172 -3.667,17.225c-0.17,11.54 -5.733,17.429 -12.647,23.688c-1.473,1.334 -3.014,2.718 -4.561,4.125c1.949,-13.215 7.898,-30.163 20.875,-45.039l-0,0.001Z" style="fill:url(#_Linear18);"/>
    </g>
    <g>
        <path d="M268.917,127.09c2.769,-20.523 9.284,-40.231 12.867,-60.591c0.326,-2.28 0.815,-4.56 0.815,-7.004c-0,-3.094 -0.489,-5.212 -4.072,-5.212l-1.14,0.163l-0.652,0c-9.935,0 -21.337,63.686 -22.477,72.318c-1.629,11.239 -2.932,22.64 -2.932,33.879c0,3.583 0.163,13.356 5.701,13.356c5.212,-0 6.026,-9.61 6.841,-13.193c2.28,-10.587 6.515,-21.012 10.75,-30.947c7.004,-16.288 32.25,-67.269 44.14,-67.269c5.049,0 5.7,12.867 5.7,16.288c0,14.007 -1.465,33.064 -4.886,46.746c-22.803,18.568 -55.704,49.026 -55.704,70.689c-0,8.958 5.538,14.659 14.333,14.659c27.364,0 51.144,-51.958 56.03,-77.204c0.489,-2.443 0.977,-4.724 1.629,-7.33c8.144,-5.538 14.333,-8.144 14.333,-10.261c0,-1.955 -1.629,-3.095 -3.42,-3.095c-2.281,0 -6.027,1.629 -9.121,3.421c1.628,-8.47 2.769,-16.94 2.769,-25.572c-0,-8.497 -0.998,-23.211 -7.208,-31.603c-2.837,-3.833 -6.761,-6.348 -12.175,-6.348c-24.595,0 -46.257,55.053 -52.121,74.11Zm12.216,72.481c-4.724,-0 -7.167,-2.932 -7.167,-8.307c0,-16.451 22.803,-38.439 43.163,-54.89c-5.864,23.617 -18.894,63.197 -35.996,63.197Z" style="fill:url(#_Linear19);fill-rule:nonzero;"/>
        <path d="M277.105,98.822c5.617,-12.415 12.863,-25.695 21.053,-35.08c7.052,-8.08 14.879,-13.262 22.88,-13.262c6.301,0 10.883,2.899 14.185,7.361c6.508,8.796 7.698,24.184 7.698,33.09c-0,7.125 -0.759,14.143 -1.93,21.138c2.179,-0.896 4.272,-1.487 5.782,-1.487c3.164,0 5.92,2.143 5.92,5.595c0,1.16 -0.683,2.625 -2.508,4.066c-2.251,1.777 -6.715,4.114 -12.128,7.73c-0.53,2.186 -0.952,4.172 -1.373,6.28c-2.988,15.423 -12.892,40.629 -26.357,58.328c-9.357,12.299 -20.512,20.891 -32.126,20.891c-5.16,0 -9.339,-1.738 -12.254,-4.724c-2.896,-2.967 -4.579,-7.213 -4.579,-12.435c-0,-9.102 5.387,-19.745 13.556,-30.413c11.594,-15.142 28.71,-30.478 42.42,-41.685c3.235,-13.439 4.614,-31.784 4.614,-45.337c0,-1.918 -0.201,-7.015 -1.396,-10.785c-0.268,-0.845 -0.581,-1.618 -0.978,-2.233c-0.244,-0.379 -0.435,-0.77 -0.826,-0.77c-0.997,0 -2.074,0.631 -3.301,1.553c-2.489,1.87 -5.249,5.004 -8.149,8.893c-11.831,15.866 -25.533,44.008 -30.392,55.307c-4.173,9.79 -8.357,20.057 -10.604,30.489c-0.002,0.009 -0.004,0.018 -0.006,0.028c-0.515,2.263 -1.07,6.8 -2.585,10.076c-1.409,3.048 -3.631,5.063 -6.694,5.063c-3.3,-0 -5.491,-2.117 -6.725,-5.254c-1.362,-3.459 -1.476,-8.248 -1.476,-10.602c0,-11.353 1.311,-22.87 2.954,-34.208c0.923,-6.992 8.526,-49.614 16.662,-66.388c1.373,-2.83 2.801,-4.978 4.18,-6.266c1.361,-1.271 2.774,-1.835 4.113,-1.835l0.474,0l0.964,-0.138c0.117,-0.016 0.236,-0.025 0.354,-0.025c2.304,0 3.761,0.697 4.741,1.668c1.311,1.3 1.831,3.383 1.831,6.044c-0,2.566 -0.498,4.963 -0.84,7.358c-0.004,0.026 -0.008,0.053 -0.012,0.08c-1.891,10.739 -4.599,21.297 -7.142,31.889Zm-8.188,28.268c2.769,-20.523 9.284,-40.231 12.867,-60.591c0.326,-2.28 0.815,-4.56 0.815,-7.004c-0,-3.094 -0.489,-5.212 -4.072,-5.212l-1.14,0.163l-0.652,0c-9.935,0 -21.337,63.686 -22.477,72.318c-1.629,11.239 -2.932,22.64 -2.932,33.879c0,3.583 0.163,13.356 5.701,13.356c5.212,-0 6.026,-9.61 6.841,-13.193c2.28,-10.587 6.515,-21.012 10.75,-30.947c7.004,-16.288 32.25,-67.269 44.14,-67.269c5.049,0 5.7,12.867 5.7,16.288c0,14.007 -1.465,33.064 -4.886,46.746c-22.803,18.568 -55.704,49.026 -55.704,70.689c-0,8.958 5.538,14.659 14.333,14.659c27.364,0 51.144,-51.958 56.03,-77.204c0.489,-2.443 0.977,-4.724 1.629,-7.33c8.144,-5.538 14.333,-8.144 14.333,-10.261c0,-1.955 -1.629,-3.095 -3.42,-3.095c-2.281,0 -6.027,1.629 -9.121,3.421c1.628,-8.47 2.769,-16.94 2.769,-25.572c-0,-8.497 -0.998,-23.211 -7.208,-31.603c-2.837,-3.833 -6.761,-6.348 -12.175,-6.348c-24.595,0 -46.257,55.053 -52.121,74.11Zm12.216,72.481c-4.724,-0 -7.167,-2.932 -7.167,-8.307c0,-16.451 22.803,-38.439 43.163,-54.89c-5.864,23.617 -18.894,63.197 -35.996,63.197Zm-0,-2.5c2.852,-0 5.529,-1.406 8.089,-3.676c2.899,-2.571 5.603,-6.23 8.124,-10.532c6.57,-11.21 11.821,-26.691 15.397,-39.623c-10.204,8.63 -20.406,18.361 -27.441,27.825c-5.304,7.137 -8.836,14.055 -8.836,20.199c0,1.966 0.334,3.517 1.212,4.544c0.767,0.896 1.948,1.263 3.455,1.263Z" style="fill:rgb(238,201,212);"/>
    </g>
    <defs>
        <filter id="_Effect1" filterUnits="userSpaceOnUse" x="-5.37582" y="133.851" width="277.197" height="170.333">
            <feGaussianBlur in="SourceGraphic" stdDeviation="4.69725"/>
        </filter>
        <filter id="_Effect2" filterUnits="userSpaceOnUse" x="-9.90846" y="128.488" width="293.164" height="174.009">
            <feGaussianBlur in="SourceGraphic" stdDeviation="5.591"/>
        </filter>
        <filter id="_Effect3" filterUnits="userSpaceOnUse" x="0.347372" y="-9.53224" width="224.944" height="231.83">
            <feGaussianBlur in="SourceGraphic" stdDeviation="5.591"/>
        </filter>
        <linearGradient id="_Linear4" x1="0" y1="0" x2="1" y2="0.0430765" gradientUnits="userSpaceOnUse" gradientTransform="matrix(-31.1896,135.956,-124.882,-33.9555,158.674,7.42782)"><stop offset="0" style="stop-color:rgb(52,65,78);stop-opacity:0.36"/><stop offset="0.18" style="stop-color:rgb(63,92,95);stop-opacity:0"/><stop offset="0.34" style="stop-color:rgb(64,87,93);stop-opacity:0.33"/><stop offset="0.72" style="stop-color:rgb(60,89,101);stop-opacity:0"/><stop offset="1" style="stop-color:rgb(83,108,112);stop-opacity:0.64"/></linearGradient>
        <linearGradient id="_Linear5" x1="0" y1="0" x2="1" y2="0.0177201" gradientUnits="userSpaceOnUse" gradientTransform="matrix(-11.7092,131.789,-121.054,-12.7476,118.63,11.9196)"><stop offset="0" style="stop-color:rgb(42,61,73);stop-opacity:0.08"/><stop offset="0.09" style="stop-color:rgb(122,154,177);stop-opacity:0"/><stop offset="0.39" style="stop-color:rgb(47,76,84);stop-opacity:0.22"/><stop offset="0.77" style="stop-color:rgb(119,173,180);stop-opacity:0"/><stop offset="1" style="stop-color:rgb(48,78,86);stop-opacity:0.58"/></linearGradient>
        <linearGradient id="_Linear6" x1="0" y1="0" x2="1" y2="-0.0690415" gradientUnits="userSpaceOnUse" gradientTransform="matrix(50.8097,117.552,-107.977,55.3156,122.251,13.8957)"><stop offset="0" style="stop-color:rgb(42,61,73);stop-opacity:0"/><stop offset="0.2" style="stop-color:rgb(122,154,177);stop-opacity:0.29"/><stop offset="0.52" style="stop-color:rgb(47,76,84);stop-opacity:0.04"/><stop offset="0.69" style="stop-color:rgb(119,173,180);stop-opacity:0"/><stop offset="1" style="stop-color:rgb(48,78,86);stop-opacity:0.58"/></linearGradient>
        <linearGradient id="_Linear7" x1="0" y1="0" x2="1" y2="-0.07083" gradientUnits="userSpaceOnUse" gradientTransform="matrix(26.8538,59.3985,-54.56,29.2352,150.478,56.9745)"><stop offset="0" style="stop-color:rgb(52,65,78);stop-opacity:0.36"/><stop offset="0.18" style="stop-color:rgb(63,92,95);stop-opacity:0"/><stop offset="0.37" style="stop-color:rgb(64,87,93);stop-opacity:0.33"/><stop offset="0.72" style="stop-color:rgb(60,89,101);stop-opacity:0"/><stop offset="1" style="stop-color:rgb(83,108,112);stop-opacity:0.64"/></linearGradient>
        <linearGradient id="_Linear8" x1="0" y1="0" x2="1" y2="-0.0847622" gradientUnits="userSpaceOnUse" gradientTransform="matrix(39.272,50.6831,-46.5546,42.7547,90.4485,125.801)"><stop offset="0" style="stop-color:rgb(52,65,78);stop-opacity:0.36"/><stop offset="0.18" style="stop-color:rgb(63,92,95);stop-opacity:0"/><stop offset="0.52" style="stop-color:rgb(64,87,93);stop-opacity:0.19"/><stop offset="0.77" style="stop-color:rgb(60,89,101);stop-opacity:0"/><stop offset="1" style="stop-color:rgb(83,108,112);stop-opacity:0.64"/></linearGradient>
        <linearGradient id="_Linear9" x1="0" y1="0" x2="1" y2="-0.00657136" gradientUnits="userSpaceOnUse" gradientTransform="matrix(4.32446,132.505,-121.712,4.70796,118.63,11.9196)"><stop offset="0" style="stop-color:rgb(52,65,78);stop-opacity:0.36"/><stop offset="0.18" style="stop-color:rgb(63,92,95);stop-opacity:0"/><stop offset="0.52" style="stop-color:rgb(64,87,93);stop-opacity:0.19"/><stop offset="0.77" style="stop-color:rgb(60,89,101);stop-opacity:0"/><stop offset="1" style="stop-color:rgb(83,108,112);stop-opacity:0.64"/></linearGradient>
        <linearGradient id="_Linear10" x1="0" y1="0" x2="1" y2="0.0159602" gradientUnits="userSpaceOnUse" gradientTransform="matrix(77.1896,-8.659,7.95365,84.0349,140.571,95.2794)"><stop offset="0" style="stop-color:rgb(42,61,73);stop-opacity:0"/><stop offset="0.2" style="stop-color:rgb(122,154,177);stop-opacity:0.29"/><stop offset="0.26" style="stop-color:rgb(47,76,84);stop-opacity:0.04"/><stop offset="0.69" style="stop-color:rgb(119,173,180);stop-opacity:0"/><stop offset="1" style="stop-color:rgb(48,78,86);stop-opacity:0.58"/></linearGradient>
        <linearGradient id="_Linear11" x1="0" y1="0" x2="1" y2="-0.0634476" gradientUnits="userSpaceOnUse" gradientTransform="matrix(28.6513,75.8605,-69.6811,31.1922,150.478,56.9745)"><stop offset="0" style="stop-color:rgb(52,65,78);stop-opacity:0.36"/><stop offset="0.18" style="stop-color:rgb(63,92,95);stop-opacity:0"/><stop offset="0.46" style="stop-color:rgb(64,87,93);stop-opacity:0.33"/><stop offset="0.72" style="stop-color:rgb(60,89,101);stop-opacity:0"/><stop offset="1" style="stop-color:rgb(83,108,112);stop-opacity:0.64"/></linearGradient>
        <linearGradient id="_Linear12" x1="0" y1="0" x2="1" y2="-0.0120663" gradientUnits="userSpaceOnUse" gradientTransform="matrix(10.3596,172.257,-158.225,11.2783,118.63,11.9196)"><stop offset="0" style="stop-color:rgb(42,61,73);stop-opacity:0.08"/><stop offset="0.46" style="stop-color:rgb(122,154,177);stop-opacity:0"/><stop offset="0.64" style="stop-color:rgb(47,76,84);stop-opacity:0.22"/><stop offset="0.77" style="stop-color:rgb(119,173,180);stop-opacity:0"/><stop offset="1" style="stop-color:rgb(48,78,86);stop-opacity:0.58"/></linearGradient>
        <linearGradient id="_Linear13" x1="0" y1="0" x2="1" y2="-0.0319362" gradientUnits="userSpaceOnUse" gradientTransform="matrix(24.061,146.371,-134.448,26.1947,69.1966,83.3716)"><stop offset="0" style="stop-color:rgb(42,61,73);stop-opacity:0.08"/><stop offset="0.22" style="stop-color:rgb(122,154,177);stop-opacity:0"/><stop offset="0.39" style="stop-color:rgb(47,76,84);stop-opacity:0.43"/><stop offset="0.77" style="stop-color:rgb(119,173,180);stop-opacity:0"/><stop offset="1" style="stop-color:rgb(48,78,86);stop-opacity:0.58"/></linearGradient>
        <linearGradient id="_Linear14" x1="0" y1="0" x2="1" y2="0.0436414" gradientUnits="userSpaceOnUse" gradientTransform="matrix(-21.2768,91.3524,-83.9111,-23.1637,108.651,28.1831)"><stop offset="0" style="stop-color:rgb(42,61,73);stop-opacity:0.16"/><stop offset="0.46" style="stop-color:rgb(122,154,177);stop-opacity:0"/><stop offset="0.62" style="stop-color:rgb(47,76,84);stop-opacity:0.22"/><stop offset="0.77" style="stop-color:rgb(119,173,180);stop-opacity:0"/><stop offset="1" style="stop-color:rgb(48,78,86);stop-opacity:0.58"/></linearGradient>
        <linearGradient id="_Linear15" x1="0" y1="0" x2="1" y2="-0.0390553" gradientUnits="userSpaceOnUse" gradientTransform="matrix(27.2433,132.815,-121.996,29.6593,121.796,16.3608)"><stop offset="0" style="stop-color:rgb(42,61,73);stop-opacity:0.08"/><stop offset="0.34" style="stop-color:rgb(122,154,177);stop-opacity:0"/><stop offset="0.67" style="stop-color:rgb(47,76,84);stop-opacity:0.22"/><stop offset="0.83" style="stop-color:rgb(75,129,136);stop-opacity:0.22"/><stop offset="1" style="stop-color:rgb(48,78,86);stop-opacity:0.06"/></linearGradient>
        <linearGradient id="_Linear16" x1="0" y1="0" x2="1" y2="-0.0136284" gradientUnits="userSpaceOnUse" gradientTransform="matrix(7.51412,110.465,-101.467,8.18048,119.158,29.1111)"><stop offset="0" style="stop-color:rgb(249,50,94);stop-opacity:1"/><stop offset="1" style="stop-color:rgb(249,50,94);stop-opacity:0"/></linearGradient>
        <linearGradient id="_Linear17" x1="0" y1="0" x2="1" y2="-0.0136284" gradientUnits="userSpaceOnUse" gradientTransform="matrix(7.51412,110.465,-101.467,8.18048,120.459,28.2028)"><stop offset="0" style="stop-color:rgb(249,50,94);stop-opacity:1"/><stop offset="1" style="stop-color:rgb(249,50,94);stop-opacity:0"/></linearGradient>
        <linearGradient id="_Linear18" x1="0" y1="0" x2="1" y2="-0.0136284" gradientUnits="userSpaceOnUse" gradientTransform="matrix(7.51412,110.465,-101.467,8.18048,121.225,29.6027)"><stop offset="0" style="stop-color:rgb(249,50,94);stop-opacity:1"/><stop offset="1" style="stop-color:rgb(249,50,94);stop-opacity:0"/></linearGradient>
        <linearGradient id="_Linear19" x1="0" y1="0" x2="1" y2="0" gradientUnits="userSpaceOnUse" gradientTransform="matrix(311.423,0,0,157.992,251.326,131.976)"><stop offset="0" style="stop-color:rgb(248,53,96);stop-opacity:1"/><stop offset="1" style="stop-color:rgb(236,118,146);stop-opacity:1"/></linearGradient>
    </defs>
</svg>
